<svg xmlns="http://www.w3.org/2000/svg" enable-background="new 0 0 512 512" viewBox="0 0 512 512" id="puffer-jacket">
  <path d="M256,50c-35.9,0-56.2-8-61.5-10.5c-1.8-0.8-2.9-2.6-2.9-4.5s1.1-3.7,2.9-4.5C199.8,28,220.1,20,256,20s56.2,8,61.5,10.5c1.8,0.8,2.9,2.6,2.9,4.5s-1.1,3.7-2.9,4.5C312.2,42,291.9,50,256,50z M212.1,35c11,2.8,26,5,43.9,5s32.9-2.2,43.9-5c-11-2.8-26-5-43.9-5S223.1,32.2,212.1,35z"></path>
  <rect width="10" height="388" x="251" y="85"></rect>
  <path d="M386,478H126c-8.3,0-15-6.7-15-15v-24c0-2.8,2.2-5,5-5h280c2.8,0,5,2.2,5,5v24C401,471.3,394.3,478,386,478z M121,444v19c0,2.8,2.2,5,5,5h260c2.8,0,5-2.2,5-5v-19H121z"></path>
  <path d="M417,444H95c-10.5,0-19-8.5-19-19v-45.3c0-10.5,8.5-19,19-19h141v10H95c-5,0-9,4-9,9V425c0,5,4,9,9,9h322c5,0,9-4,9-9v-45.3c0-5-4-9-9-9H256v-10h161c10.5,0,19,8.5,19,19V425C436,435.5,427.5,444,417,444z"></path>
  <path d="M417 370.7v-10c5 0 9-4 9-9v-45.3c0-5-4-9-9-9v-10c10.5 0 19 8.5 19 19v45.3C436 362.1 427.5 370.7 417 370.7zM95 370.7c-10.5 0-19-8.5-19-19v-45.3c0-10.5 8.5-19 19-19v10c-5 0-9 4-9 9v45.3c0 5 4 9 9 9V370.7z"></path>
  <path d="M417 297.3H95c-10.5 0-19-8.5-19-19V233c0-10.5 8.5-19 19-19h322c10.5 0 19 8.5 19 19v45.3C436 288.8 427.5 297.3 417 297.3zM95 224c-5 0-9 4-9 9v45.3c0 5 4 9 9 9h322c5 0 9-4 9-9V233c0-5-4-9-9-9H95zM71 512H31c-8.3 0-15-6.7-15-15v-24c0-2.8 2.2-5 5-5h60c2.8 0 5 2.2 5 5v24C86 505.3 79.3 512 71 512zM26 478v19c0 2.8 2.2 5 5 5h40c2.8 0 5-2.2 5-5v-19H26z"></path>
  <path d="M497,478h-72c-8.3,0-15-6.7-15-15v-19H102v19c0,8.3-6.7,15-15,15H15c-8.3,0-15-6.7-15-15V281.2c0-17.2,2.4-34.3,7.2-50.8c7.6-26.2,21.3-50.7,39.6-70.9c18.3-20.2,41.3-36.3,66.5-46.5L166,91.6V35c0-22.7,46.4-35,90-35s90,12.3,90,35v56.6l52.7,21.4c25.2,10.2,48.2,26.3,66.5,46.5c18.3,20.2,31.9,44.7,39.6,70.9c4.8,16.5,7.2,33.6,7.2,50.8V463C512,471.3,505.3,478,497,478z M97,434h318c2.8,0,5,2.2,5,5v24c0,2.8,2.2,5,5,5h72c2.8,0,5-2.2,5-5V281.2c0-16.2-2.3-32.4-6.8-48c-14.8-50.7-51.3-91.1-100.2-111l-55.8-22.6c-1.9-0.8-3.1-2.6-3.1-4.6V35c0-10.4-30.4-25-80-25s-80,14.6-80,25v60c0,10.4,30.4,25,80,25c24.5,0,47.5-3.7,63.1-10.3l3.9,9.2c-16.8,7-41.2,11.1-66.9,11.1c-39,0-80.3-9.8-88.5-28.2l-50.4,20.4c-48.9,19.8-85.4,60.3-100.2,111c-4.5,15.6-6.8,31.7-6.8,48V463c0,2.8,2.2,5,5,5h72c2.8,0,5-2.2,5-5v-24C92,436.2,94.2,434,97,434z"></path>
  <path d="M481,512h-40c-8.3,0-15-6.7-15-15v-24c0-2.8,2.2-5,5-5h60c2.8,0,5,2.2,5,5v24C496,505.3,489.3,512,481,512z M436,478v19c0,2.8,2.2,5,5,5h40c2.8,0,5-2.2,5-5v-19H436z"></path>
  <rect width="76" height="10" x="5" y="393"></rect>
  <rect width="76" height="10" x="5" y="318"></rect>
  <rect width="76" height="10" x="5" y="243"></rect>
  <rect width="76" height="10" x="431" y="393"></rect>
  <rect width="76" height="10" x="431" y="318"></rect>
  <rect width="76" height="10" x="431" y="243"></rect>
  <path d="M266 90h-20c-2.8 0-5-2.2-5-5V55c0-8.3 6.7-15 15-15s15 6.7 15 15v30C271 87.8 268.8 90 266 90zM251 80h10V55c0-2.8-2.2-5-5-5s-5 2.2-5 5V80zM102 219H92v-7.1c0-23.6-10.3-46-28.1-61.4l6.5-7.6c20.1 17.3 31.6 42.4 31.6 69V219zM420 219h-10v-7.1c0-26.5 11.5-51.6 31.6-69l6.5 7.6C430.3 166 420 188.3 420 211.9V219z"></path>
</svg>
