<?xml version="1.0" encoding="UTF-8" standalone="no"?>
<!-- Created with Inkscape (http://www.inkscape.org/) -->

<svg
   version="1.1"
   id="svg2"
   width="2829.3333"
   height="2829.3333"
   viewBox="0 0 2829.3333 2829.3333"
   sodipodi:docname="2533_R0lVIE5JQyA1NDgtMTk.eps"
   xmlns:inkscape="http://www.inkscape.org/namespaces/inkscape"
   xmlns:sodipodi="http://sodipodi.sourceforge.net/DTD/sodipodi-0.dtd"
   xmlns="http://www.w3.org/2000/svg"
   xmlns:svg="http://www.w3.org/2000/svg">
  <defs
     id="defs6" />
  <sodipodi:namedview
     id="namedview4"
     pagecolor="#ffffff"
     bordercolor="#000000"
     borderopacity="0.25"
     inkscape:showpageshadow="2"
     inkscape:pageopacity="0.0"
     inkscape:pagecheckerboard="0"
     inkscape:deskcolor="#d1d1d1" />
  <g
     id="g8"
     inkscape:groupmode="layer"
     inkscape:label="ink_ext_XXXXXX"
     transform="matrix(1.3333333,0,0,-1.3333333,0,2829.3333)">
    <g
       id="g10"
       transform="scale(0.1)">
      <path
         d="m 10372.7,8737.3 c -39.4,0 -78,16 -105.8,43.9 -27.9,27.8 -43.9,66.4 -43.9,105.8 0,55.3 -2.9,109.9 -7.8,163.9 V 3263.8 c 0,-7.9 1.1,-15.5 2.3,-23.1 -1.2,-7.5 -2.3,-15.2 -2.3,-23.1 h -0.1 c 0,-260 -104.9,-494 -275.15,-664.5 -170.57,-170.3 -404.58,-275.2 -664.5,-275.3 -260.03,0.1 -493.99,105 -664.55,275.3 -170.29,170.5 -275.14,404.5 -275.24,664.5 0,82.7 -67.03,149.7 -149.66,149.7 -82.68,0 -149.67,-67 -149.67,-149.7 -0.1,-341.7 138.9,-652.4 362.92,-876.2 223.78,-224 534.46,-363 876.2,-362.9 341.68,-0.1 652.42,138.9 876.15,362.9 224,223.8 363,534.5 362.9,876.2 0,7.9 -1.1,15.6 -2.3,23.1 1.2,7.6 2.3,15.2 2.3,23.1 v 5577.9 c -7.2,-22.6 -19.1,-43.6 -36,-60.5 -27.9,-27.9 -66.4,-43.9 -105.8,-43.9"
         style="fill:#231f20;fill-opacity:1;fill-rule:nonzero;stroke:none"
         id="path12" />
      <path
         d="m 15400,14011.6 c -1034.9,923.4 -2324.7,1565.9 -3751.2,1809 74.4,-48.8 147.9,-101.3 219.9,-158 456.2,-359.8 863.7,-873.3 1212.4,-1504.8 621.1,-1126.4 1055.6,-2631.2 1216.4,-4327.8 99.2,194 227.6,370.6 380.1,523 374.7,374.9 894.1,607.4 1466.1,607.3 494.3,0.1 949.6,-173.5 1305.7,-462.7 84.7,-68.8 163.7,-144.3 236.6,-225.5 -380,1466.6 -1189,2760.5 -2286,3739.5"
         style="fill:#231f20;fill-opacity:1;fill-rule:nonzero;stroke:none"
         id="path14" />
      <path
         d="m 8332.65,15153.8 c 231.96,267.1 480.57,491.2 743.87,664.6 -1435.07,-247.2 -2731.21,-898.8 -3767.79,-1833.9 -1084.37,-978.4 -1883.55,-2266.1 -2258.99,-3723.8 66.55,75.1 138.07,145.7 214.75,210.5 360.65,305 828.26,489.2 1337.31,489.1 560.48,0.1 1070.39,-223.1 1443,-584.9 155.47,-150.7 286.98,-326.1 389.24,-519.3 94.51,979.1 280.39,1894 540.66,2708.3 338.8,1058.9 801.84,1948.5 1357.95,2589.4"
         style="fill:#231f20;fill-opacity:1;fill-rule:nonzero;stroke:none"
         id="path16" />
      <path
         d="m 12137.2,14995.9 c -341.7,384.1 -711.7,657.3 -1095.5,804.5 -219.4,84.3 -443.5,127.9 -672.9,128.5 h -7.9 c -234.2,-0.6 -462.95,-46.1 -686.82,-133.8 -223.78,-87.8 -442.63,-218.1 -654.03,-388.4 -422.8,-340.5 -814.85,-841.9 -1151.22,-1470.4 -540.47,-1008.5 -936.43,-2342.3 -1109.57,-3848.9 67.32,94.7 141.97,183.7 223.82,265.6 374.71,374.9 893.97,607.4 1466,607.3 571.99,0.1 1091.26,-232.4 1466.02,-607.3 195.9,-195.8 352.4,-431.3 457.6,-692.8 105.2,261.5 261.7,497 457.6,692.8 374.7,374.9 894.1,607.4 1466.1,607.3 515.1,0.1 987.8,-188.5 1350,-500 119.8,-102.9 227.4,-219.5 321,-347 -105.3,903.3 -290.8,1744 -539.9,2489.1 -331.9,994.1 -777.7,1817.8 -1290.3,2393.5"
         style="fill:#231f20;fill-opacity:1;fill-rule:nonzero;stroke:none"
         id="path18" />
      <path
         d="m 14937.4,16310.2 c 224.5,0.1 426.4,90.6 573.6,237.7 147.1,147.3 237.6,349.1 237.7,573.6 0.2,42.6 -10.6,109.3 -33.2,187.9 -22.4,78.7 -55.8,169.9 -96.9,267.1 -82.1,194.6 -194.5,413.5 -309.1,619.6 -136.5,245.7 -275.8,473 -372.1,625.8 -33.8,-53.5 -72.2,-115.2 -114.7,-184.9 -137.6,-225.6 -310.4,-523 -449.4,-805.6 -92.7,-188 -170.2,-370.3 -211.9,-514.4 -24,-81.9 -35.6,-151.5 -35.3,-195.5 0.1,-224.5 90.6,-426.3 237.6,-573.6 147.3,-147.1 349.2,-237.6 573.7,-237.7"
         style="fill:#231f20;fill-opacity:1;fill-rule:nonzero;stroke:none"
         id="path20" />
      <path
         d="m 18312.5,15562.3 c -28.3,99.1 -70,212.8 -121.1,333.8 -102.1,242.1 -241.4,513.3 -383.3,768.5 -183.7,330.5 -371.3,634.1 -490.2,821.5 -47.7,-75.2 -106.4,-169 -171.6,-275.9 -170.3,-279.1 -384.1,-647 -556.5,-997.5 -114.9,-233.3 -211.3,-459.7 -263.8,-640.8 -30.3,-103.1 -45.4,-191.7 -45.1,-251.3 0.1,-286.7 115.8,-545 303.8,-733.2 188.1,-187.9 446.4,-303.6 733.2,-303.7 286.8,0.1 545,115.8 733.1,303.7 187.9,188.1 303.6,446.4 303.7,733.2 0.3,57.7 -13.8,142.7 -42.2,241.7"
         style="fill:#231f20;fill-opacity:1;fill-rule:nonzero;stroke:none"
         id="path22" />
    </g>
  </g>
</svg>
