<?xml version="1.0" encoding="UTF-8" standalone="no"?>
<svg
   xmlns:dc="http://purl.org/dc/elements/1.1/"
   xmlns:cc="http://creativecommons.org/ns#"
   xmlns:rdf="http://www.w3.org/1999/02/22-rdf-syntax-ns#"
   xmlns:svg="http://www.w3.org/2000/svg"
   xmlns="http://www.w3.org/2000/svg"
   viewBox="0 0 4000 4000"
   height="4000"
   width="4000"
   xml:space="preserve"
   id="svg2"
   version="1.1"><metadata
     id="metadata8"><rdf:RDF><cc:Work
         rdf:about=""><dc:format>image/svg+xml</dc:format><dc:type
           rdf:resource="http://purl.org/dc/dcmitype/StillImage" /></cc:Work></rdf:RDF></metadata><defs
     id="defs6" /><g
     transform="matrix(1.3333333,0,0,-1.3333333,0,4000)"
     id="g10"><g
       transform="scale(0.1)"
       id="g12"><g
         transform="scale(1.84049)"
         id="g14"><path
           id="path16"
           style="fill:#1a1a1a;fill-opacity:1;fill-rule:nonzero;stroke:none"
           d="M 0,16300 H 16300 V 0 H 0 v 16300" /></g><g
         transform="scale(1.68503)"
         id="g18"><path
           id="path20"
           style="fill:#ffcc00;fill-opacity:1;fill-rule:nonzero;stroke:none"
           d="m 7762.09,15760.7 c 0,-143 -56.82,-280.2 -157.95,-381.3 -101.13,-101.1 -238.3,-157.9 -381.32,-157.9 -297.83,0 -539.27,241.4 -539.27,539.2 0,143.1 56.82,280.2 157.95,381.4 101.13,101.1 238.3,157.9 381.32,157.9 143.02,0 280.19,-56.8 381.32,-157.9 101.13,-101.2 157.95,-238.3 157.95,-381.4" /></g><g
         transform="scale(1.71713)"
         id="g22"><path
           id="path24"
           style="fill:none;stroke:#ffcc00;stroke-width:82.54000092;stroke-linecap:round;stroke-linejoin:round;stroke-miterlimit:4;stroke-dasharray:none;stroke-opacity:1"
           d="m 7087.78,16300 v -198.4" /></g><g
         transform="scale(1.56233)"
         id="g26"><path
           id="path28"
           style="fill:none;stroke:#ffcc00;stroke-width:90.71829987;stroke-linecap:round;stroke-linejoin:round;stroke-miterlimit:4;stroke-dasharray:none;stroke-opacity:1"
           d="M 7790.12,16081.9 V 16300" /></g><g
         transform="scale(1.62928)"
         id="g30"><path
           id="path32"
           style="fill:none;stroke:#ffcc00;stroke-width:86.9905014;stroke-linecap:round;stroke-linejoin:round;stroke-miterlimit:4;stroke-dasharray:none;stroke-opacity:1"
           d="M 8348.89,16300 H 8139.75" /></g><g
         transform="scale(1.62927)"
         id="g34"><path
           id="path36"
           style="fill:none;stroke:#ffcc00;stroke-width:86.99089813;stroke-linecap:round;stroke-linejoin:round;stroke-miterlimit:4;stroke-dasharray:none;stroke-opacity:1"
           d="m 6591.09,16300 h 209.15" /></g><g
         transform="scale(1.6914)"
         id="g38"><path
           id="path40"
           style="fill:none;stroke:#ffcc00;stroke-width:83.79560089;stroke-linecap:round;stroke-linejoin:round;stroke-miterlimit:4;stroke-dasharray:none;stroke-opacity:1"
           d="m 7794.27,16300 -142.46,-142.5" /></g><g
         transform="scale(1.58194)"
         id="g42"><path
           id="path44"
           style="fill:none;stroke:#ffcc00;stroke-width:89.59400177;stroke-linecap:round;stroke-linejoin:round;stroke-miterlimit:4;stroke-dasharray:none;stroke-opacity:1"
           d="m 7053.48,16147.7 152.31,152.3" /></g><g
         transform="scale(1.58194)"
         id="g46"><path
           id="path48"
           style="fill:none;stroke:#ffcc00;stroke-width:89.59369659;stroke-linecap:round;stroke-linejoin:round;stroke-miterlimit:4;stroke-dasharray:none;stroke-opacity:1"
           d="M 8333.62,16147.7 8181.31,16300" /></g><g
         transform="scale(1.6914)"
         id="g50"><path
           id="path52"
           style="fill:none;stroke:#ffcc00;stroke-width:83.79589844;stroke-linecap:round;stroke-linejoin:round;stroke-miterlimit:4;stroke-dasharray:none;stroke-opacity:1"
           d="m 6596.97,16300 142.45,-142.5" /></g><g
         transform="scale(1.6914)"
         id="g54"><path
           id="path56"
           style="fill:none;stroke:#ffcc00;stroke-width:83.79560089;stroke-linecap:round;stroke-linejoin:round;stroke-miterlimit:4;stroke-dasharray:none;stroke-opacity:1"
           d="m 7794.27,16300 -142.46,-142.5" /></g><g
         transform="scale(1.58194)"
         id="g58"><path
           id="path60"
           style="fill:none;stroke:#ffcc00;stroke-width:89.59400177;stroke-linecap:round;stroke-linejoin:round;stroke-miterlimit:4;stroke-dasharray:none;stroke-opacity:1"
           d="m 7053.48,16147.7 152.31,152.3" /></g><g
         transform="scale(1.58194)"
         id="g62"><path
           id="path64"
           style="fill:none;stroke:#ffcc00;stroke-width:89.59369659;stroke-linecap:round;stroke-linejoin:round;stroke-miterlimit:4;stroke-dasharray:none;stroke-opacity:1"
           d="M 8333.62,16147.7 8181.31,16300" /></g><g
         transform="scale(1.6914)"
         id="g66"><path
           id="path68"
           style="fill:none;stroke:#ffcc00;stroke-width:83.79589844;stroke-linecap:round;stroke-linejoin:round;stroke-miterlimit:4;stroke-dasharray:none;stroke-opacity:1"
           d="m 6596.97,16300 142.45,-142.5" /></g><g
         transform="scale(1.71022)"
         id="g70"><path
           id="path72"
           style="fill:none;stroke:#ffcc00;stroke-width:82.87380219;stroke-linecap:round;stroke-linejoin:round;stroke-miterlimit:4;stroke-dasharray:none;stroke-opacity:1"
           d="m 7442.07,16300 -77.48,-183.6" /></g><g
         transform="scale(1.5676)"
         id="g74"><path
           id="path76"
           style="fill:none;stroke:#ffcc00;stroke-width:90.41339874;stroke-linecap:round;stroke-linejoin:round;stroke-miterlimit:4;stroke-dasharray:none;stroke-opacity:1"
           d="m 7408.68,16099.7 84.53,200.3" /></g><g
         transform="scale(1.60324)"
         id="g78"><path
           id="path80"
           style="fill:none;stroke:#ffcc00;stroke-width:88.40319824;stroke-linecap:round;stroke-linejoin:round;stroke-miterlimit:4;stroke-dasharray:none;stroke-opacity:1"
           d="m 8414.18,16217.3 -195.82,82.7" /></g><g
         transform="scale(1.66344)"
         id="g82"><path
           id="path84"
           style="fill:none;stroke:#ffcc00;stroke-width:85.20410156;stroke-linecap:round;stroke-linejoin:round;stroke-miterlimit:4;stroke-dasharray:none;stroke-opacity:1"
           d="m 6523.47,16300 188.72,-79.7" /></g><g
         transform="scale(1.66235)"
         id="g86"><path
           id="path88"
           style="fill:none;stroke:#ffcc00;stroke-width:85.25990295;stroke-linecap:round;stroke-linejoin:round;stroke-miterlimit:4;stroke-dasharray:none;stroke-opacity:1"
           d="m 8119.41,16300 -189.9,-77.2" /></g><g
         transform="scale(1.60407)"
         id="g90"><path
           id="path92"
           style="fill:none;stroke:#ffcc00;stroke-width:88.35759735;stroke-linecap:round;stroke-linejoin:round;stroke-miterlimit:4;stroke-dasharray:none;stroke-opacity:1"
           d="m 6760.33,16220 196.8,80" /></g><g
         transform="scale(1.56726)"
         id="g94"><path
           id="path96"
           style="fill:none;stroke:#ffcc00;stroke-width:90.43319702;stroke-linecap:round;stroke-linejoin:round;stroke-miterlimit:4;stroke-dasharray:none;stroke-opacity:1"
           d="m 8109.59,16098.6 -81.84,201.4" /></g><g
         transform="scale(1.71067)"
         id="g98"><path
           id="path100"
           style="fill:none;stroke:#ffcc00;stroke-width:82.85189819;stroke-linecap:round;stroke-linejoin:round;stroke-miterlimit:4;stroke-dasharray:none;stroke-opacity:1"
           d="m 6799.44,16300 74.99,-184.5" /></g><g
         transform="scale(1.68169)"
         id="g102"><path
           id="path104"
           style="fill:#aaffee;fill-opacity:1;fill-rule:nonzero;stroke:none"
           d="m 6323.76,16300 c -306.88,-0.3 -569.93,-219.4 -625.79,-521.1 -267.15,-82.4 -449.4,-329.3 -449.4,-608.8 0,-169 67.12,-331 186.6,-450.5 119.48,-119.5 281.52,-186.6 450.49,-186.6 128.75,0 254.48,39 360.61,111.9 106.14,-72.9 231.87,-111.9 360.62,-111.9 126.28,0 249.71,37.5 354.61,107.8 104.91,-70.3 228.34,-107.8 354.61,-107.8 351.85,0 637.09,285.2 637.09,637.1 0,351.8 -285.24,637.1 -637.09,637.1 -126.28,0 -249.71,-37.6 -354.61,-107.9 -0.36,0.3 -0.72,0.5 -1.09,0.8 -19.68,336.8 -298.58,599.9 -636,599.9 -0.22,0 -0.43,0 -0.65,0" /></g><g
         transform="scale(1.66618)"
         id="g106"><path
           id="path108"
           style="fill:#ffcc00;fill-opacity:1;fill-rule:nonzero;stroke:none"
           d="m 2796,15754.6 c 0,-144.6 -57.46,-283.3 -159.74,-385.6 -102.27,-102.3 -240.99,-159.7 -385.63,-159.7 -301.2,0 -545.37,244.1 -545.37,545.3 0,144.7 57.46,283.4 159.74,385.7 102.27,102.2 240.99,159.7 385.63,159.7 144.64,0 283.36,-57.5 385.63,-159.7 102.28,-102.3 159.74,-241 159.74,-385.7" /></g><g
         transform="scale(1.69828)"
         id="g110"><path
           id="path112"
           style="fill:none;stroke:#ffcc00;stroke-width:83.45610046;stroke-linecap:round;stroke-linejoin:round;stroke-miterlimit:4;stroke-dasharray:none;stroke-opacity:1"
           d="m 2208.08,16300 v -200.6" /></g><g
         transform="scale(1.54348)"
         id="g114"><path
           id="path116"
           style="fill:none;stroke:#ffcc00;stroke-width:91.82610321;stroke-linecap:round;stroke-linejoin:round;stroke-miterlimit:4;stroke-dasharray:none;stroke-opacity:1"
           d="M 2429.6,16079.2 V 16300" /></g><g
         transform="scale(1.61043)"
         id="g118"><path
           id="path120"
           style="fill:none;stroke:#ffcc00;stroke-width:88.00859833;stroke-linecap:round;stroke-linejoin:round;stroke-miterlimit:4;stroke-dasharray:none;stroke-opacity:1"
           d="m 3217.77,16300 h -211.6" /></g><g
         transform="scale(1.61043)"
         id="g122"><path
           id="path124"
           style="fill:none;stroke:#ffcc00;stroke-width:88.00900269;stroke-linecap:round;stroke-linejoin:round;stroke-miterlimit:4;stroke-dasharray:none;stroke-opacity:1"
           d="m 1439.38,16300 h 211.59" /></g><g
         transform="scale(1.67255)"
         id="g126"><path
           id="path128"
           style="fill:none;stroke:#ffcc00;stroke-width:84.73989868;stroke-linecap:round;stroke-linejoin:round;stroke-miterlimit:4;stroke-dasharray:none;stroke-opacity:1"
           d="M 2847.46,16300 2703.4,16155.9" /></g><g
         transform="scale(1.56309)"
         id="g130"><path
           id="path132"
           style="fill:none;stroke:#ffcc00;stroke-width:90.67430115;stroke-linecap:round;stroke-linejoin:round;stroke-miterlimit:4;stroke-dasharray:none;stroke-opacity:1"
           d="m 1751.32,16145.8 154.15,154.2" /></g><g
         transform="scale(1.56309)"
         id="g134"><path
           id="path136"
           style="fill:none;stroke:#ffcc00;stroke-width:90.6740036;stroke-linecap:round;stroke-linejoin:round;stroke-miterlimit:4;stroke-dasharray:none;stroke-opacity:1"
           d="M 3046.91,16145.8 2892.76,16300" /></g><g
         transform="scale(1.67255)"
         id="g138"><path
           id="path140"
           style="fill:none;stroke:#ffcc00;stroke-width:84.74009705;stroke-linecap:round;stroke-linejoin:round;stroke-miterlimit:4;stroke-dasharray:none;stroke-opacity:1"
           d="m 1636.66,16300 144.06,-144.1" /></g><g
         transform="scale(1.67255)"
         id="g142"><path
           id="path144"
           style="fill:none;stroke:#ffcc00;stroke-width:84.73989868;stroke-linecap:round;stroke-linejoin:round;stroke-miterlimit:4;stroke-dasharray:none;stroke-opacity:1"
           d="M 2847.46,16300 2703.4,16155.9" /></g><g
         transform="scale(1.56309)"
         id="g146"><path
           id="path148"
           style="fill:none;stroke:#ffcc00;stroke-width:90.67430115;stroke-linecap:round;stroke-linejoin:round;stroke-miterlimit:4;stroke-dasharray:none;stroke-opacity:1"
           d="m 1751.32,16145.8 154.15,154.2" /></g><g
         transform="scale(1.56309)"
         id="g150"><path
           id="path152"
           style="fill:none;stroke:#ffcc00;stroke-width:90.6740036;stroke-linecap:round;stroke-linejoin:round;stroke-miterlimit:4;stroke-dasharray:none;stroke-opacity:1"
           d="M 3046.91,16145.8 2892.76,16300" /></g><g
         transform="scale(1.67255)"
         id="g154"><path
           id="path156"
           style="fill:none;stroke:#ffcc00;stroke-width:84.74009705;stroke-linecap:round;stroke-linejoin:round;stroke-miterlimit:4;stroke-dasharray:none;stroke-opacity:1"
           d="m 1636.66,16300 144.06,-144.1" /></g><g
         transform="scale(1.69137)"
         id="g158"><path
           id="path160"
           style="fill:none;stroke:#ffcc00;stroke-width:83.79730225;stroke-linecap:round;stroke-linejoin:round;stroke-miterlimit:4;stroke-dasharray:none;stroke-opacity:1"
           d="m 2546.37,16300 -78.35,-185.6" /></g><g
         transform="scale(1.54875)"
         id="g162"><path
           id="path164"
           style="fill:none;stroke:#ffcc00;stroke-width:91.51370239;stroke-linecap:round;stroke-linejoin:round;stroke-miterlimit:4;stroke-dasharray:none;stroke-opacity:1"
           d="m 2061.75,16097.3 85.57,202.7" /></g><g
         transform="scale(1.5844)"
         id="g166"><path
           id="path168"
           style="fill:none;stroke:#ffcc00;stroke-width:89.45490265;stroke-linecap:round;stroke-linejoin:round;stroke-miterlimit:4;stroke-dasharray:none;stroke-opacity:1"
           d="m 3199.51,16216.4 -198.14,83.6" /></g><g
         transform="scale(1.64459)"
         id="g170"><path
           id="path172"
           style="fill:none;stroke:#ffcc00;stroke-width:86.18060303;stroke-linecap:round;stroke-linejoin:round;stroke-miterlimit:4;stroke-dasharray:none;stroke-opacity:1"
           d="m 1478,16300 190.89,-80.6" /></g><g
         transform="scale(1.6435)"
         id="g174"><path
           id="path176"
           style="fill:none;stroke:#ffcc00;stroke-width:86.23770142;stroke-linecap:round;stroke-linejoin:round;stroke-miterlimit:4;stroke-dasharray:none;stroke-opacity:1"
           d="m 3088.91,16300 -192.08,-78.1" /></g><g
         transform="scale(1.58522)"
         id="g178"><path
           id="path180"
           style="fill:none;stroke:#ffcc00;stroke-width:89.40809631;stroke-linecap:round;stroke-linejoin:round;stroke-miterlimit:4;stroke-dasharray:none;stroke-opacity:1"
           d="m 1528.72,16219.1 199.15,80.9" /></g><g
         transform="scale(1.54841)"
         id="g182"><path
           id="path184"
           style="fill:none;stroke:#ffcc00;stroke-width:91.53399658;stroke-linecap:round;stroke-linejoin:round;stroke-miterlimit:4;stroke-dasharray:none;stroke-opacity:1"
           d="m 2770.02,16096.1 -82.85,203.9" /></g><g
         transform="scale(1.69182)"
         id="g186"><path
           id="path188"
           style="fill:none;stroke:#ffcc00;stroke-width:83.77500153;stroke-linecap:round;stroke-linejoin:round;stroke-miterlimit:4;stroke-dasharray:none;stroke-opacity:1"
           d="m 1897.89,16300 75.82,-186.6" /></g><g
         transform="scale(1.74995)"
         id="g190"><path
           id="path192"
           style="fill:#999999;fill-opacity:1;fill-rule:nonzero;stroke:none"
           d="m 14734.1,11563.6 c -294.9,-0.3 -547.7,-210.8 -601.4,-500.7 -256.7,-79.2 -431.8,-316.5 -431.8,-585.1 0,-162.4 64.5,-318.1 179.3,-432.9 114.8,-114.85 270.5,-179.35 432.9,-179.35 123.7,0 244.6,37.49 346.6,107.52 102,-70.03 222.8,-107.52 346.5,-107.52 121.4,0 240,36.06 340.8,103.6 100.8,-67.54 219.4,-103.6 340.8,-103.6 338.1,0 612.2,274.15 612.2,612.25 0,338.1 -274.1,612.2 -612.2,612.2 -121.4,0 -240,-36 -340.8,-103.6 -0.4,0.3 -0.7,0.5 -1.1,0.7 -18.9,323.7 -286.9,576.5 -611.2,576.5 -0.2,0 -0.4,0 -0.6,0" /></g><g
         transform="scale(1.74995)"
         id="g194"><path
           id="path196"
           style="fill:#aaffee;fill-opacity:1;fill-rule:nonzero;stroke:none"
           d="m 14734.1,15849.5 c -294.9,-0.3 -547.7,-210.8 -601.4,-500.8 -256.7,-79.2 -431.8,-316.4 -431.8,-585.1 0,-162.3 64.5,-318.1 179.3,-432.9 114.8,-114.8 270.5,-179.3 432.9,-179.3 123.7,0 244.6,37.5 346.6,107.5 102,-70 222.8,-107.5 346.5,-107.5 121.4,0 240,36 340.8,103.6 100.8,-67.6 219.4,-103.6 340.8,-103.6 338.1,0 612.2,274.1 612.2,612.2 0,338.2 -274.1,612.3 -612.2,612.3 -121.4,0 -240,-36.1 -340.8,-103.6 -0.4,0.2 -0.7,0.4 -1.1,0.7 -18.9,323.7 -286.9,576.5 -611.2,576.5 -0.2,0 -0.4,0 -0.6,0" /></g><g
         transform="scale(1.17592)"
         id="g198"><path
           id="path200"
           style="fill:#ffcc00;fill-opacity:1;fill-rule:nonzero;stroke:none"
           d="M 9188.25,16298.4 8945.8,15035.9 h 798.76 l -269.73,-1404.5 757.57,1830.7 h -852.32 l 350.55,837.9 -542.38,-1.6" /></g><g
         transform="scale(1.31755)"
         id="g202"><path
           id="path204"
           style="fill:#999999;fill-opacity:1;fill-rule:nonzero;stroke:none"
           d="m 8184.84,16300 c -391.69,-0.4 -727.44,-280 -798.75,-665.1 -340.98,-105.2 -573.59,-420.3 -573.59,-777.1 0,-215.7 85.67,-422.5 238.17,-575 152.49,-152.5 359.32,-238.2 574.99,-238.2 164.33,0 324.81,49.8 460.28,142.8 135.47,-93 295.95,-142.8 460.28,-142.8 161.17,0 318.71,47.9 452.61,137.6 133.9,-89.7 291.44,-137.6 452.61,-137.6 449.1,0 813.16,364.1 813.16,813.2 0,449.1 -364.06,813.1 -813.16,813.2 -161.17,0 -318.71,-47.9 -452.61,-137.7 -0.46,0.4 -0.93,0.7 -1.38,1 -25.13,429.9 -381.11,765.7 -811.78,765.7 -0.28,0 -0.55,0 -0.83,0" /></g><g
         transform="scale(1.0983)"
         id="g206"><path
           id="path208"
           style="fill:#00ccff;fill-opacity:1;fill-rule:nonzero;stroke:none"
           d="m 9011.02,16300 v -132.2 132.2" /></g><g
         transform="scale(1.0983)"
         id="g210"><path
           id="path212"
           style="fill:none;stroke:#00ccff;stroke-width:129.04699707;stroke-linecap:round;stroke-linejoin:round;stroke-miterlimit:4;stroke-dasharray:none;stroke-opacity:1"
           d="m 9011.02,16300 v -132.2 z" /></g><g
         transform="scale(1.11415)"
         id="g214"><path
           id="path216"
           style="fill:#00ccff;fill-opacity:1;fill-rule:nonzero;stroke:none"
           d="m 9660.88,16300 v -130.4 130.4" /></g><g
         transform="scale(1.11415)"
         id="g218"><path
           id="path220"
           style="fill:none;stroke:#00ccff;stroke-width:127.21099854;stroke-linecap:round;stroke-linejoin:round;stroke-miterlimit:4;stroke-dasharray:none;stroke-opacity:1"
           d="m 9660.88,16300 v -130.4 z" /></g><g
         transform="scale(1.09015)"
         id="g222"><path
           id="path224"
           style="fill:#00ccff;fill-opacity:1;fill-rule:nonzero;stroke:none"
           d="m 10662.4,16300 v -133.2 133.2" /></g><g
         transform="scale(1.09015)"
         id="g226"><path
           id="path228"
           style="fill:none;stroke:#00ccff;stroke-width:130.01199341;stroke-linecap:round;stroke-linejoin:round;stroke-miterlimit:4;stroke-dasharray:none;stroke-opacity:1"
           d="m 10662.4,16300 v -133.2 z" /></g><g
         transform="scale(1.10944)"
         id="g230"><path
           id="path232"
           style="fill:#00ccff;fill-opacity:1;fill-rule:nonzero;stroke:none"
           d="m 11190.1,16300 v -130.9 130.9" /></g><g
         transform="scale(1.10944)"
         id="g234"><path
           id="path236"
           style="fill:none;stroke:#00ccff;stroke-width:127.75099945;stroke-linecap:round;stroke-linejoin:round;stroke-miterlimit:4;stroke-dasharray:none;stroke-opacity:1"
           d="m 11190.1,16300 v -130.9 z" /></g><g
         transform="scale(1.0537)"
         id="g238"><path
           id="path240"
           style="fill:#00ccff;fill-opacity:1;fill-rule:nonzero;stroke:none"
           d="m 9869.06,16300 v -137.8 137.8" /></g><g
         transform="scale(1.0537)"
         id="g242"><path
           id="path244"
           style="fill:none;stroke:#00ccff;stroke-width:134.50900269;stroke-linecap:round;stroke-linejoin:round;stroke-miterlimit:4;stroke-dasharray:none;stroke-opacity:1"
           d="m 9869.06,16300 v -137.8 z" /></g><g
         transform="scale(1.04297)"
         id="g246"><path
           id="path248"
           style="fill:#00ccff;fill-opacity:1;fill-rule:nonzero;stroke:none"
           d="m 10689.5,16300 v -139.3 139.3" /></g><g
         transform="scale(1.04297)"
         id="g250"><path
           id="path252"
           style="fill:none;stroke:#00ccff;stroke-width:135.89199829;stroke-linecap:round;stroke-linejoin:round;stroke-miterlimit:4;stroke-dasharray:none;stroke-opacity:1"
           d="m 10689.5,16300 v -139.3 z" /></g><g
         transform="scale(1.05997)"
         id="g254"><path
           id="path256"
           style="fill:#00ccff;fill-opacity:1;fill-rule:nonzero;stroke:none"
           d="m 11504.7,16300 v -137 137" /></g><g
         transform="scale(1.05997)"
         id="g258"><path
           id="path260"
           style="fill:none;stroke:#00ccff;stroke-width:133.71299744;stroke-linecap:round;stroke-linejoin:round;stroke-miterlimit:4;stroke-dasharray:none;stroke-opacity:1"
           d="m 11504.7,16300 v -137 z" /></g><g
         transform="scale(1.01427)"
         id="g262"><path
           id="path264"
           style="fill:#00ccff;fill-opacity:1;fill-rule:nonzero;stroke:none"
           d="m 9852.56,16300 v -143.2 143.2" /></g><g
         transform="scale(1.01427)"
         id="g266"><path
           id="path268"
           style="fill:none;stroke:#00ccff;stroke-width:139.73899841;stroke-linecap:round;stroke-linejoin:round;stroke-miterlimit:4;stroke-dasharray:none;stroke-opacity:1"
           d="m 9852.56,16300 v -143.2 z" /></g><path
         id="path270"
         style="fill:#00ccff;fill-opacity:1;fill-rule:nonzero;stroke:none"
         d="m 10681.1,16240 v -145.3 145.3" /><path
         id="path272"
         style="fill:none;stroke:#00ccff;stroke-width:141.73199463;stroke-linecap:round;stroke-linejoin:round;stroke-miterlimit:4;stroke-dasharray:none;stroke-opacity:1"
         d="m 10681.1,16240 v -145.3 z" /><g
         transform="scale(1.00064)"
         id="g274"><path
           id="path276"
           style="fill:#00ccff;fill-opacity:1;fill-rule:nonzero;stroke:none"
           d="m 11760.6,16300 v -145.1 145.1" /></g><g
         transform="scale(1.00064)"
         id="g278"><path
           id="path280"
           style="fill:none;stroke:#00ccff;stroke-width:141.64199829;stroke-linecap:round;stroke-linejoin:round;stroke-miterlimit:4;stroke-dasharray:none;stroke-opacity:1"
           d="m 11760.6,16300 v -145.1 z" /></g><g
         transform="scale(1.02056)"
         id="g282"><path
           id="path284"
           style="fill:#00ccff;fill-opacity:1;fill-rule:nonzero;stroke:none"
           d="m 12286,16300 v -142.3 142.3" /></g><g
         transform="scale(1.02056)"
         id="g286"><path
           id="path288"
           style="fill:none;stroke:#00ccff;stroke-width:138.87600708;stroke-linecap:round;stroke-linejoin:round;stroke-miterlimit:4;stroke-dasharray:none;stroke-opacity:1"
           d="m 12286,16300 v -142.3 z" /></g><g
         transform="scale(1.19967)"
         id="g290"><path
           id="path292"
           style="fill:#ffcc00;fill-opacity:1;fill-rule:nonzero;stroke:none"
           d="m 15276.6,15954.9 -237.7,-1237.5 h 783 l -264.4,-1376.8 742.5,1794.5 h -835.4 l 343.6,821.4 -531.6,-1.6" /></g><g
         transform="scale(1.31875)"
         id="g294"><path
           id="path296"
           style="fill:#999999;fill-opacity:1;fill-rule:nonzero;stroke:none"
           d="m 13864.6,16300 c -391.4,-0.4 -726.8,-279.7 -798,-664.5 -340.7,-105.1 -573.1,-419.9 -573.1,-776.4 0,-215.5 85.6,-422.1 237.9,-574.5 152.4,-152.3 359,-237.9 574.5,-237.9 164.2,0 324.5,49.7 459.9,142.7 135.3,-93 295.6,-142.7 459.8,-142.7 161.1,0 318.4,47.8 452.2,137.5 133.8,-89.7 291.2,-137.5 452.2,-137.5 448.7,0 812.4,363.7 812.4,812.4 0,448.7 -363.7,812.4 -812.4,812.4 -161,0 -318.4,-47.8 -452.2,-137.5 -0.4,0.3 -0.9,0.7 -1.4,1 -25.1,429.5 -380.7,765 -811,765 -0.3,0 -0.5,0 -0.8,0" /></g><path
         id="path298"
         style="fill:#ffcc00;fill-opacity:1;fill-rule:nonzero;stroke:none"
         d="m 10826.8,11715.7 -285.1,-1484.6 h 939.2 l -317.1,-1651.62 890.7,2152.72 h -1002.2 l 412.3,985.4 -637.8,-1.9" /><path
         id="path300"
         style="fill:#999999;fill-opacity:1;fill-rule:nonzero;stroke:none"
         d="m 10784,14070.9 c -516.1,-0.6 -958.48,-368.9 -1052.42,-876.4 -449.26,-138.5 -755.75,-553.7 -755.75,-1023.8 0,-284.2 112.88,-556.7 313.8,-757.6 200.93,-200.9 473.44,-313.8 757.57,-313.8 216.5,0 428,65.6 606.5,188.1 178.5,-122.5 389.9,-188.1 606.4,-188.1 212.4,0 419.9,63.1 596.3,181.3 176.5,-118.2 384,-181.3 596.4,-181.3 591.7,0 1071.4,479.7 1071.4,1071.4 0,591.7 -479.7,1071.4 -1071.4,1071.4 -212.4,0 -419.9,-63.1 -596.4,-181.3 -0.6,0.4 -1.2,0.8 -1.8,1.2 -33.1,566.4 -502.1,1008.9 -1069.5,1008.9 -0.4,0 -0.8,0 -1.1,0" /><path
         id="path302"
         style="fill:none;stroke:#00ccff;stroke-width:141.73199463;stroke-linecap:round;stroke-linejoin:round;stroke-miterlimit:4;stroke-dasharray:none;stroke-opacity:1"
         d="m 9984.88,10696.2 v -340.7" /><path
         id="path304"
         style="fill:none;stroke:#00ccff;stroke-width:141.73199463;stroke-linecap:round;stroke-linejoin:round;stroke-miterlimit:4;stroke-dasharray:none;stroke-opacity:1"
         d="m 10755.4,10535.9 v -340.8" /><path
         id="path306"
         style="fill:none;stroke:#00ccff;stroke-width:141.73199463;stroke-linecap:round;stroke-linejoin:round;stroke-miterlimit:4;stroke-dasharray:none;stroke-opacity:1"
         d="m 11553.4,10866.6 v -340.7" /><path
         id="path308"
         style="fill:none;stroke:#00ccff;stroke-width:141.73199463;stroke-linecap:round;stroke-linejoin:round;stroke-miterlimit:4;stroke-dasharray:none;stroke-opacity:1"
         d="m 12420.3,10538 v -340.8" /><path
         id="path310"
         style="fill:none;stroke:#00ccff;stroke-width:141.73199463;stroke-linecap:round;stroke-linejoin:round;stroke-miterlimit:4;stroke-dasharray:none;stroke-opacity:1"
         d="M 10301.3,9856.91 V 9516.16" /><path
         id="path312"
         style="fill:none;stroke:#00ccff;stroke-width:141.73199463;stroke-linecap:round;stroke-linejoin:round;stroke-miterlimit:4;stroke-dasharray:none;stroke-opacity:1"
         d="M 11078.7,9712.44 V 9371.68" /><path
         id="path314"
         style="fill:none;stroke:#00ccff;stroke-width:141.73199463;stroke-linecap:round;stroke-linejoin:round;stroke-miterlimit:4;stroke-dasharray:none;stroke-opacity:1"
         d="M 11952.5,9856.91 V 9516.16" /><path
         id="path316"
         style="fill:none;stroke:#00ccff;stroke-width:141.73199463;stroke-linecap:round;stroke-linejoin:round;stroke-miterlimit:4;stroke-dasharray:none;stroke-opacity:1"
         d="M 9998.64,9136.58 V 8795.82" /><path
         id="path318"
         style="fill:none;stroke:#00ccff;stroke-width:141.73199463;stroke-linecap:round;stroke-linejoin:round;stroke-miterlimit:4;stroke-dasharray:none;stroke-opacity:1"
         d="M 10721,8840.75 V 8500" /><path
         id="path320"
         style="fill:none;stroke:#00ccff;stroke-width:141.73199463;stroke-linecap:round;stroke-linejoin:round;stroke-miterlimit:4;stroke-dasharray:none;stroke-opacity:1"
         d="M 11677.3,8930.19 V 8589.43" /><path
         id="path322"
         style="fill:none;stroke:#00ccff;stroke-width:141.73199463;stroke-linecap:round;stroke-linejoin:round;stroke-miterlimit:4;stroke-dasharray:none;stroke-opacity:1"
         d="M 12310.2,8978.35 V 8637.59" /><path
         id="path324"
         style="fill:none;stroke:#00ccff;stroke-width:141.73199463;stroke-linecap:round;stroke-linejoin:round;stroke-miterlimit:4;stroke-dasharray:none;stroke-opacity:1"
         d="m 2493.11,10726.6 v -340.8" /><path
         id="path326"
         style="fill:none;stroke:#00ccff;stroke-width:141.73199463;stroke-linecap:round;stroke-linejoin:round;stroke-miterlimit:4;stroke-dasharray:none;stroke-opacity:1"
         d="m 3263.63,10566.2 v -340.8" /><path
         id="path328"
         style="fill:none;stroke:#00ccff;stroke-width:141.73199463;stroke-linecap:round;stroke-linejoin:round;stroke-miterlimit:4;stroke-dasharray:none;stroke-opacity:1"
         d="m 4061.67,10896.9 v -340.7" /><path
         id="path330"
         style="fill:none;stroke:#00ccff;stroke-width:141.73199463;stroke-linecap:round;stroke-linejoin:round;stroke-miterlimit:4;stroke-dasharray:none;stroke-opacity:1"
         d="m 4928.5,10568.3 v -340.7" /><path
         id="path332"
         style="fill:none;stroke:#00ccff;stroke-width:141.73199463;stroke-linecap:round;stroke-linejoin:round;stroke-miterlimit:4;stroke-dasharray:none;stroke-opacity:1"
         d="M 2809.57,9887.23 V 9546.48" /><path
         id="path334"
         style="fill:none;stroke:#00ccff;stroke-width:141.73199463;stroke-linecap:round;stroke-linejoin:round;stroke-miterlimit:4;stroke-dasharray:none;stroke-opacity:1"
         d="M 3586.97,9742.76 V 9402" /><path
         id="path336"
         style="fill:none;stroke:#00ccff;stroke-width:141.73199463;stroke-linecap:round;stroke-linejoin:round;stroke-miterlimit:4;stroke-dasharray:none;stroke-opacity:1"
         d="M 4460.69,9887.23 V 9546.48" /><path
         id="path338"
         style="fill:none;stroke:#00ccff;stroke-width:141.73199463;stroke-linecap:round;stroke-linejoin:round;stroke-miterlimit:4;stroke-dasharray:none;stroke-opacity:1"
         d="M 2506.87,9166.9 V 8826.14" /><path
         id="path340"
         style="fill:none;stroke:#00ccff;stroke-width:141.73199463;stroke-linecap:round;stroke-linejoin:round;stroke-miterlimit:4;stroke-dasharray:none;stroke-opacity:1"
         d="M 3229.23,8871.07 V 8530.32" /><path
         id="path342"
         style="fill:none;stroke:#00ccff;stroke-width:141.73199463;stroke-linecap:round;stroke-linejoin:round;stroke-miterlimit:4;stroke-dasharray:none;stroke-opacity:1"
         d="M 4185.5,8960.51 V 8619.75" /><path
         id="path344"
         style="fill:none;stroke:#00ccff;stroke-width:141.73199463;stroke-linecap:round;stroke-linejoin:round;stroke-miterlimit:4;stroke-dasharray:none;stroke-opacity:1"
         d="M 4818.43,9008.67 V 8667.91" /><path
         id="path346"
         style="fill:#999999;fill-opacity:1;fill-rule:nonzero;stroke:none"
         d="m 3283.97,14040.5 c -516.08,-0.5 -958.45,-368.9 -1052.39,-876.3 -449.26,-138.5 -755.75,-553.7 -755.75,-1023.8 0,-284.2 112.88,-556.7 313.8,-757.6 200.93,-201 473.44,-313.8 757.59,-313.8 216.51,0 427.95,65.6 606.44,188.1 178.49,-122.5 389.93,-188.1 606.45,-188.1 212.35,0 419.92,63.1 596.34,181.3 176.42,-118.2 383.98,-181.3 596.34,-181.3 591.71,0 1071.38,479.6 1071.38,1071.4 0,591.7 -479.67,1071.3 -1071.38,1071.3 -212.36,0 -419.93,-63.1 -596.35,-181.3 -0.6,0.4 -1.21,0.9 -1.82,1.3 -33.1,566.4 -502.12,1008.8 -1069.56,1008.8 -0.36,0.1 -0.73,0.1 -1.09,0" /><g
         transform="scale(1.31755)"
         id="g348"><path
           id="path350"
           style="fill:#999999;fill-opacity:1;fill-rule:nonzero;stroke:none"
           d="m 2492.47,16300 c -391.69,-0.4 -727.44,-280 -798.74,-665.1 -340.98,-105.2 -573.6,-420.3 -573.6,-777.1 0,-215.7 85.67,-422.5 238.17,-575 152.5,-152.5 359.33,-238.2 574.99,-238.2 164.33,0 324.81,49.8 460.28,142.8 135.47,-93 295.95,-142.8 460.28,-142.8 161.18,0 318.72,47.9 452.62,137.6 133.9,-89.7 291.43,-137.6 452.61,-137.6 449.09,0 813.16,364.1 813.16,813.2 0,449.1 -364.07,813.1 -813.16,813.2 -161.18,0 -318.72,-47.9 -452.62,-137.7 -0.46,0.4 -0.92,0.7 -1.38,1 -25.12,429.9 -381.1,765.7 -811.78,765.7 -0.28,0 -0.55,0 -0.83,0" /></g><g
         transform="scale(1.0983)"
         id="g352"><path
           id="path354"
           style="fill:#00ccff;fill-opacity:1;fill-rule:nonzero;stroke:none"
           d="m 2182.28,16300 v -132.2 132.2" /></g><g
         transform="scale(1.0983)"
         id="g356"><path
           id="path358"
           style="fill:none;stroke:#00ccff;stroke-width:129.04699707;stroke-linecap:round;stroke-linejoin:round;stroke-miterlimit:4;stroke-dasharray:none;stroke-opacity:1"
           d="m 2182.28,16300 v -132.2 z" /></g><g
         transform="scale(1.11415)"
         id="g360"><path
           id="path362"
           style="fill:#00ccff;fill-opacity:1;fill-rule:nonzero;stroke:none"
           d="m 2929.27,16300 v -130.4 130.4" /></g><g
         transform="scale(1.11415)"
         id="g364"><path
           id="path366"
           style="fill:none;stroke:#00ccff;stroke-width:127.21099854;stroke-linecap:round;stroke-linejoin:round;stroke-miterlimit:4;stroke-dasharray:none;stroke-opacity:1"
           d="m 2929.27,16300 v -130.4 z" /></g><g
         transform="scale(1.09015)"
         id="g368"><path
           id="path370"
           style="fill:#00ccff;fill-opacity:1;fill-rule:nonzero;stroke:none"
           d="m 3782.59,16300 v -133.2 133.2" /></g><g
         transform="scale(1.09015)"
         id="g372"><path
           id="path374"
           style="fill:none;stroke:#00ccff;stroke-width:130.01199341;stroke-linecap:round;stroke-linejoin:round;stroke-miterlimit:4;stroke-dasharray:none;stroke-opacity:1"
           d="m 3782.59,16300 v -133.2 z" /></g><g
         transform="scale(1.10944)"
         id="g376"><path
           id="path378"
           style="fill:#00ccff;fill-opacity:1;fill-rule:nonzero;stroke:none"
           d="m 4429.95,16300 v -130.9 130.9" /></g><g
         transform="scale(1.10944)"
         id="g380"><path
           id="path382"
           style="fill:none;stroke:#00ccff;stroke-width:127.75099945;stroke-linecap:round;stroke-linejoin:round;stroke-miterlimit:4;stroke-dasharray:none;stroke-opacity:1"
           d="m 4429.95,16300 v -130.9 z" /></g><g
         transform="scale(1.0537)"
         id="g384"><path
           id="path386"
           style="fill:#00ccff;fill-opacity:1;fill-rule:nonzero;stroke:none"
           d="m 2751.27,16300 v -137.8 137.8" /></g><g
         transform="scale(1.0537)"
         id="g388"><path
           id="path390"
           style="fill:none;stroke:#00ccff;stroke-width:134.50900269;stroke-linecap:round;stroke-linejoin:round;stroke-miterlimit:4;stroke-dasharray:none;stroke-opacity:1"
           d="m 2751.27,16300 v -137.8 z" /></g><g
         transform="scale(1.04297)"
         id="g392"><path
           id="path394"
           style="fill:#00ccff;fill-opacity:1;fill-rule:nonzero;stroke:none"
           d="m 3498.55,16300 v -139.3 139.3" /></g><g
         transform="scale(1.04297)"
         id="g396"><path
           id="path398"
           style="fill:none;stroke:#00ccff;stroke-width:135.89199829;stroke-linecap:round;stroke-linejoin:round;stroke-miterlimit:4;stroke-dasharray:none;stroke-opacity:1"
           d="m 3498.55,16300 v -139.3 z" /></g><g
         transform="scale(1.05997)"
         id="g400"><path
           id="path402"
           style="fill:#00ccff;fill-opacity:1;fill-rule:nonzero;stroke:none"
           d="m 4428.99,16300 v -137 137" /></g><g
         transform="scale(1.05997)"
         id="g404"><path
           id="path406"
           style="fill:none;stroke:#00ccff;stroke-width:133.71299744;stroke-linecap:round;stroke-linejoin:round;stroke-miterlimit:4;stroke-dasharray:none;stroke-opacity:1"
           d="m 4428.99,16300 v -137 z" /></g><g
         transform="scale(1.01427)"
         id="g408"><path
           id="path410"
           style="fill:#00ccff;fill-opacity:1;fill-rule:nonzero;stroke:none"
           d="m 2458.04,16300 v -143.2 143.2" /></g><g
         transform="scale(1.01427)"
         id="g412"><path
           id="path414"
           style="fill:none;stroke:#00ccff;stroke-width:139.73899841;stroke-linecap:round;stroke-linejoin:round;stroke-miterlimit:4;stroke-dasharray:none;stroke-opacity:1"
           d="m 2458.04,16300 v -143.2 z" /></g><path
         id="path416"
         style="fill:#00ccff;fill-opacity:1;fill-rule:nonzero;stroke:none"
         d="m 3181.07,16240 v -145.3 145.3" /><path
         id="path418"
         style="fill:none;stroke:#00ccff;stroke-width:141.73199463;stroke-linecap:round;stroke-linejoin:round;stroke-miterlimit:4;stroke-dasharray:none;stroke-opacity:1"
         d="m 3181.07,16240 v -145.3 z" /><g
         transform="scale(1.00064)"
         id="g420"><path
           id="path422"
           style="fill:#00ccff;fill-opacity:1;fill-rule:nonzero;stroke:none"
           d="m 4265.35,16300 v -145.1 145.1" /></g><g
         transform="scale(1.00064)"
         id="g424"><path
           id="path426"
           style="fill:none;stroke:#00ccff;stroke-width:141.64199829;stroke-linecap:round;stroke-linejoin:round;stroke-miterlimit:4;stroke-dasharray:none;stroke-opacity:1"
           d="m 4265.35,16300 v -145.1 z" /></g><g
         transform="scale(1.02056)"
         id="g428"><path
           id="path430"
           style="fill:#00ccff;fill-opacity:1;fill-rule:nonzero;stroke:none"
           d="m 4937.06,16300 v -142.3 142.3" /></g><g
         transform="scale(1.02056)"
         id="g432"><path
           id="path434"
           style="fill:none;stroke:#00ccff;stroke-width:138.87600708;stroke-linecap:round;stroke-linejoin:round;stroke-miterlimit:4;stroke-dasharray:none;stroke-opacity:1"
           d="m 4937.06,16300 v -142.3 z" /></g><g
         transform="scale(1.76112)"
         id="g436"><path
           id="path438"
           style="fill:#ffcc00;fill-opacity:1;fill-rule:nonzero;stroke:none"
           d="m 11685.4,15784 c 0,-136.8 -54.4,-268.1 -151.2,-364.8 -96.7,-96.8 -228,-151.1 -364.8,-151.1 -285,0 -516,231 -516,515.9 0,136.9 54.4,268.1 151.1,364.9 96.8,96.7 228,151.1 364.9,151.1 136.8,0 268.1,-54.4 364.8,-151.1 96.8,-96.8 151.2,-228 151.2,-364.9" /></g><g
         transform="scale(1.79322)"
         id="g440"><path
           id="path442"
           style="fill:none;stroke:#ffcc00;stroke-width:79.03749847;stroke-linecap:round;stroke-linejoin:round;stroke-miterlimit:4;stroke-dasharray:none;stroke-opacity:1"
           d="m 10969.4,16300 v -190" /></g><g
         transform="scale(1.63842)"
         id="g444"><path
           id="path446"
           style="fill:none;stroke:#ffcc00;stroke-width:86.50499725;stroke-linecap:round;stroke-linejoin:round;stroke-miterlimit:4;stroke-dasharray:none;stroke-opacity:1"
           d="m 12005.9,16092 v 208" /></g><g
         transform="scale(1.70538)"
         id="g448"><path
           id="path450"
           style="fill:none;stroke:#ffcc00;stroke-width:83.10900116;stroke-linecap:round;stroke-linejoin:round;stroke-miterlimit:4;stroke-dasharray:none;stroke-opacity:1"
           d="m 12374.2,16300 h -199.8" /></g><g
         transform="scale(1.70537)"
         id="g452"><path
           id="path454"
           style="fill:none;stroke:#ffcc00;stroke-width:83.10929871;stroke-linecap:round;stroke-linejoin:round;stroke-miterlimit:4;stroke-dasharray:none;stroke-opacity:1"
           d="m 10694.9,16300 h 199.8" /></g><g
         transform="scale(1.7675)"
         id="g456"><path
           id="path458"
           style="fill:none;stroke:#ffcc00;stroke-width:80.18800354;stroke-linecap:round;stroke-linejoin:round;stroke-miterlimit:4;stroke-dasharray:none;stroke-opacity:1"
           d="m 11702,16300 -136.3,-136.3" /></g><g
         transform="scale(1.65803)"
         id="g460"><path
           id="path462"
           style="fill:none;stroke:#ffcc00;stroke-width:85.48210144;stroke-linecap:round;stroke-linejoin:round;stroke-miterlimit:4;stroke-dasharray:none;stroke-opacity:1"
           d="m 11253.2,16154.7 145.3,145.3" /></g><g
         transform="scale(1.65804)"
         id="g464"><path
           id="path466"
           style="fill:none;stroke:#ffcc00;stroke-width:85.48190308;stroke-linecap:round;stroke-linejoin:round;stroke-miterlimit:4;stroke-dasharray:none;stroke-opacity:1"
           d="m 12474.6,16154.7 -145.3,145.3" /></g><g
         transform="scale(1.76749)"
         id="g468"><path
           id="path470"
           style="fill:none;stroke:#ffcc00;stroke-width:80.18830109;stroke-linecap:round;stroke-linejoin:round;stroke-miterlimit:4;stroke-dasharray:none;stroke-opacity:1"
           d="m 10556.3,16300 136.3,-136.3" /></g><g
         transform="scale(1.7675)"
         id="g472"><path
           id="path474"
           style="fill:none;stroke:#ffcc00;stroke-width:80.18800354;stroke-linecap:round;stroke-linejoin:round;stroke-miterlimit:4;stroke-dasharray:none;stroke-opacity:1"
           d="m 11702,16300 -136.3,-136.3" /></g><g
         transform="scale(1.65803)"
         id="g476"><path
           id="path478"
           style="fill:none;stroke:#ffcc00;stroke-width:85.48210144;stroke-linecap:round;stroke-linejoin:round;stroke-miterlimit:4;stroke-dasharray:none;stroke-opacity:1"
           d="m 11253.2,16154.7 145.3,145.3" /></g><g
         transform="scale(1.65804)"
         id="g480"><path
           id="path482"
           style="fill:none;stroke:#ffcc00;stroke-width:85.48190308;stroke-linecap:round;stroke-linejoin:round;stroke-miterlimit:4;stroke-dasharray:none;stroke-opacity:1"
           d="m 12474.6,16154.7 -145.3,145.3" /></g><g
         transform="scale(1.76749)"
         id="g484"><path
           id="path486"
           style="fill:none;stroke:#ffcc00;stroke-width:80.18830109;stroke-linecap:round;stroke-linejoin:round;stroke-miterlimit:4;stroke-dasharray:none;stroke-opacity:1"
           d="m 10556.3,16300 136.3,-136.3" /></g><g
         transform="scale(1.78631)"
         id="g488"><path
           id="path490"
           style="fill:none;stroke:#ffcc00;stroke-width:79.34339905;stroke-linecap:round;stroke-linejoin:round;stroke-miterlimit:4;stroke-dasharray:none;stroke-opacity:1"
           d="m 11323.6,16300 -74.1,-175.7" /></g><g
         transform="scale(1.64369)"
         id="g492"><path
           id="path494"
           style="fill:none;stroke:#ffcc00;stroke-width:86.22769928;stroke-linecap:round;stroke-linejoin:round;stroke-miterlimit:4;stroke-dasharray:none;stroke-opacity:1"
           d="m 11628.6,16109 80.6,191" /></g><g
         transform="scale(1.67934)"
         id="g496"><path
           id="path498"
           style="fill:none;stroke:#ffcc00;stroke-width:84.39749908;stroke-linecap:round;stroke-linejoin:round;stroke-miterlimit:4;stroke-dasharray:none;stroke-opacity:1"
           d="m 12499,16221.1 -187,78.9" /></g><g
         transform="scale(1.73953)"
         id="g500"><path
           id="path502"
           style="fill:none;stroke:#ffcc00;stroke-width:81.47689819;stroke-linecap:round;stroke-linejoin:round;stroke-miterlimit:4;stroke-dasharray:none;stroke-opacity:1"
           d="m 10549.6,16300 180.5,-76.2" /></g><g
         transform="scale(1.73845)"
         id="g504"><path
           id="path506"
           style="fill:none;stroke:#ffcc00;stroke-width:81.5279007;stroke-linecap:round;stroke-linejoin:round;stroke-miterlimit:4;stroke-dasharray:none;stroke-opacity:1"
           d="m 12078.2,16300 -181.6,-73.8" /></g><g
         transform="scale(1.68017)"
         id="g508"><path
           id="path510"
           style="fill:none;stroke:#ffcc00;stroke-width:84.35590363;stroke-linecap:round;stroke-linejoin:round;stroke-miterlimit:4;stroke-dasharray:none;stroke-opacity:1"
           d="m 10918,16223.7 187.9,76.3" /></g><g
         transform="scale(1.64335)"
         id="g512"><path
           id="path514"
           style="fill:none;stroke:#ffcc00;stroke-width:86.24569702;stroke-linecap:round;stroke-linejoin:round;stroke-miterlimit:4;stroke-dasharray:none;stroke-opacity:1"
           d="m 12297.9,16107.9 -78,192.1" /></g><g
         transform="scale(1.78676)"
         id="g516"><path
           id="path518"
           style="fill:none;stroke:#ffcc00;stroke-width:79.3234024;stroke-linecap:round;stroke-linejoin:round;stroke-miterlimit:4;stroke-dasharray:none;stroke-opacity:1"
           d="m 10707.4,16300 71.8,-176.7" /></g><g
         transform="scale(1.75778)"
         id="g520"><path
           id="path522"
           style="fill:#afdde9;fill-opacity:1;fill-rule:nonzero;stroke:none"
           d="m 10316.7,16300 c -293.6,-0.3 -545.21,-209.9 -598.66,-498.6 -255.58,-78.8 -429.94,-315 -429.94,-582.4 0,-161.7 64.22,-316.7 178.52,-431 114.31,-114.3 269.34,-178.5 430.99,-178.5 123.19,0 243.49,37.3 344.99,107 101.6,-69.7 221.8,-107 345,-107 120.8,0 238.9,35.9 339.3,103.1 100.3,-67.2 218.4,-103.1 339.2,-103.1 336.7,0 609.5,272.9 609.5,609.5 0,336.6 -272.8,609.5 -609.5,609.5 -120.8,0 -238.9,-35.9 -339.2,-103.2 -0.4,0.3 -0.7,0.5 -1.1,0.7 -18.8,322.3 -285.6,574 -608.4,574 -0.2,0 -0.4,0 -0.7,0" /></g><g
         transform="scale(1.53853)"
         id="g524"><path
           id="path526"
           style="fill:#00ccff;fill-opacity:1;fill-rule:nonzero;stroke:none"
           d="m 11210.3,16300 v -94.4 94.4" /></g><g
         transform="scale(1.53853)"
         id="g528"><path
           id="path530"
           style="fill:none;stroke:#00ccff;stroke-width:92.12190247;stroke-linecap:round;stroke-linejoin:round;stroke-miterlimit:4;stroke-dasharray:none;stroke-opacity:1"
           d="m 11210.3,16300 v -94.4 z" /></g><g
         transform="scale(1.55437)"
         id="g532"><path
           id="path534"
           style="fill:#00ccff;fill-opacity:1;fill-rule:nonzero;stroke:none"
           d="m 11653.7,16300 v -93.4 93.4" /></g><g
         transform="scale(1.55437)"
         id="g536"><path
           id="path538"
           style="fill:none;stroke:#00ccff;stroke-width:91.18270111;stroke-linecap:round;stroke-linejoin:round;stroke-miterlimit:4;stroke-dasharray:none;stroke-opacity:1"
           d="m 11653.7,16300 v -93.4 z" /></g><g
         transform="scale(1.53038)"
         id="g540"><path
           id="path542"
           style="fill:#00ccff;fill-opacity:1;fill-rule:nonzero;stroke:none"
           d="m 12398.4,16300 v -94.9 94.9" /></g><g
         transform="scale(1.53038)"
         id="g544"><path
           id="path546"
           style="fill:none;stroke:#00ccff;stroke-width:92.61250305;stroke-linecap:round;stroke-linejoin:round;stroke-miterlimit:4;stroke-dasharray:none;stroke-opacity:1"
           d="m 12398.4,16300 v -94.9 z" /></g><g
         transform="scale(1.54966)"
         id="g548"><path
           id="path550"
           style="fill:#00ccff;fill-opacity:1;fill-rule:nonzero;stroke:none"
           d="m 12754.6,16300 v -93.7 93.7" /></g><g
         transform="scale(1.54966)"
         id="g552"><path
           id="path554"
           style="fill:none;stroke:#00ccff;stroke-width:91.4598999;stroke-linecap:round;stroke-linejoin:round;stroke-miterlimit:4;stroke-dasharray:none;stroke-opacity:1"
           d="m 12754.6,16300 v -93.7 z" /></g><g
         transform="scale(1.49393)"
         id="g556"><path
           id="path558"
           style="fill:#00ccff;fill-opacity:1;fill-rule:nonzero;stroke:none"
           d="m 11881.2,16300 v -97.2 97.2" /></g><g
         transform="scale(1.49393)"
         id="g560"><path
           id="path562"
           style="fill:none;stroke:#00ccff;stroke-width:94.87220001;stroke-linecap:round;stroke-linejoin:round;stroke-miterlimit:4;stroke-dasharray:none;stroke-opacity:1"
           d="m 11881.2,16300 v -97.2 z" /></g><g
         transform="scale(1.4832)"
         id="g564"><path
           id="path566"
           style="fill:#00ccff;fill-opacity:1;fill-rule:nonzero;stroke:none"
           d="m 12472.7,16300 v -97.9 97.9" /></g><g
         transform="scale(1.4832)"
         id="g568"><path
           id="path570"
           style="fill:none;stroke:#00ccff;stroke-width:95.55819702;stroke-linecap:round;stroke-linejoin:round;stroke-miterlimit:4;stroke-dasharray:none;stroke-opacity:1"
           d="m 12472.7,16300 v -97.9 z" /></g><g
         transform="scale(1.5002)"
         id="g572"><path
           id="path574"
           style="fill:#00ccff;fill-opacity:1;fill-rule:nonzero;stroke:none"
           d="m 13028.4,16300 v -96.8 96.8" /></g><g
         transform="scale(1.5002)"
         id="g576"><path
           id="path578"
           style="fill:none;stroke:#00ccff;stroke-width:94.4756012;stroke-linecap:round;stroke-linejoin:round;stroke-miterlimit:4;stroke-dasharray:none;stroke-opacity:1"
           d="m 13028.4,16300 v -96.8 z" /></g><g
         transform="scale(1.45449)"
         id="g580"><path
           id="path582"
           style="fill:#00ccff;fill-opacity:1;fill-rule:nonzero;stroke:none"
           d="m 11924.2,16300 v -99.9 99.9" /></g><g
         transform="scale(1.45449)"
         id="g584"><path
           id="path586"
           style="fill:none;stroke:#00ccff;stroke-width:97.44419861;stroke-linecap:round;stroke-linejoin:round;stroke-miterlimit:4;stroke-dasharray:none;stroke-opacity:1"
           d="m 11924.2,16300 v -99.9 z" /></g><g
         transform="scale(1.43655)"
         id="g588"><path
           id="path590"
           style="fill:#00ccff;fill-opacity:1;fill-rule:nonzero;stroke:none"
           d="m 12552.1,16300 v -101.1 101.1" /></g><g
         transform="scale(1.43655)"
         id="g592"><path
           id="path594"
           style="fill:none;stroke:#00ccff;stroke-width:98.66169739;stroke-linecap:round;stroke-linejoin:round;stroke-miterlimit:4;stroke-dasharray:none;stroke-opacity:1"
           d="m 12552.1,16300 v -101.1 z" /></g><g
         transform="scale(1.44086)"
         id="g596"><path
           id="path598"
           style="fill:#00ccff;fill-opacity:1;fill-rule:nonzero;stroke:none"
           d="m 13268.9,16300 v -100.8 100.8" /></g><g
         transform="scale(1.44086)"
         id="g600"><path
           id="path602"
           style="fill:none;stroke:#00ccff;stroke-width:98.3660965;stroke-linecap:round;stroke-linejoin:round;stroke-miterlimit:4;stroke-dasharray:none;stroke-opacity:1"
           d="m 13268.9,16300 v -100.8 z" /></g><g
         transform="scale(1.46079)"
         id="g604"><path
           id="path606"
           style="fill:#00ccff;fill-opacity:1;fill-rule:nonzero;stroke:none"
           d="m 13615.4,16300 v -99.4 99.4" /></g><g
         transform="scale(1.46079)"
         id="g608"><path
           id="path610"
           style="fill:none;stroke:#00ccff;stroke-width:97.02420044;stroke-linecap:round;stroke-linejoin:round;stroke-miterlimit:4;stroke-dasharray:none;stroke-opacity:1"
           d="m 13615.4,16300 v -99.4 z" /></g><g
         transform="scale(1.28983)"
         id="g612"><path
           id="path614"
           style="fill:#afdde9;fill-opacity:1;fill-rule:nonzero;stroke:none"
           d="m 14175.5,10751.6 c -400.1,-0.4 -743.1,-286 -815.9,-679.4 -348.3,-107.4 -585.9,-429.31 -585.9,-793.8 0,-220.3 87.5,-431.58 243.3,-587.35 155.7,-155.78 367,-243.3 587.3,-243.3 167.9,0.01 331.8,50.87 470.2,145.88 138.4,-95.02 302.3,-145.88 470.2,-145.88 164.6,0 325.5,48.93 462.3,140.57 136.8,-91.64 297.7,-140.57 462.4,-140.57 458.7,0.01 830.6,371.9 830.6,830.65 0,458.75 -371.9,830.6 -830.6,830.6 -164.7,0 -325.6,-48.9 -462.4,-140.52 -0.5,0.31 -0.9,0.63 -1.4,0.94 -25.7,439.18 -389.3,782.18 -829.2,782.18 -0.3,0 -0.6,0 -0.9,0" /></g><g
         transform="scale(1.09517)"
         id="g616"><path
           id="path618"
           style="fill:none;stroke:#e6e6e6;stroke-width:205.44799805;stroke-linecap:round;stroke-linejoin:round;stroke-miterlimit:4;stroke-dasharray:none;stroke-opacity:1"
           d="m 16300,9140.07 -262.7,152.15 0.5,-303.55 0.4,303.6 -262.6,-152.2 263.1,151.44 -263.1,151.35 262.7,-152.15 -0.5,303.55 -0.4,-303.6 262.6,152.2 -263.1,-151.45 z" /></g><g
         transform="scale(1.16608)"
         id="g620"><path
           id="path622"
           style="fill:none;stroke:#e6e6e6;stroke-width:192.95500183;stroke-linecap:round;stroke-linejoin:round;stroke-miterlimit:4;stroke-dasharray:none;stroke-opacity:1"
           d="m 16300,8572.48 -246.7,142.9 0.4,-285.09 0.4,285.14 -246.7,-142.95 247.2,142.23 -247.2,142.15 246.8,-142.91 -0.5,285.1 -0.4,-285.15 246.7,142.95 -247.1,-142.23 z" /></g><g
         transform="scale(1.24205)"
         id="g624"><path
           id="path626"
           style="fill:none;stroke:#e6e6e6;stroke-width:181.15299988;stroke-linecap:round;stroke-linejoin:round;stroke-miterlimit:4;stroke-dasharray:none;stroke-opacity:1"
           d="m 16300,8048.13 -231.7,134.16 0.5,-267.65 0.3,267.7 -231.5,-134.21 232,133.54 -232,133.45 231.6,-134.17 -0.4,267.66 -0.4,-267.7 231.6,134.2 -232,-133.53 z" /></g><g
         transform="scale(1.11796)"
         id="g628"><path
           id="path630"
           style="fill:none;stroke:#e6e6e6;stroke-width:201.25999451;stroke-linecap:round;stroke-linejoin:round;stroke-miterlimit:4;stroke-dasharray:none;stroke-opacity:1"
           d="m 16300,7981.44 -257.4,149.05 0.5,-297.36 0.4,297.41 -257.3,-149.1 257.8,148.36 -257.8,148.26 257.4,-149.06 -0.5,297.37 -0.4,-297.42 257.3,149.11 -257.8,-148.36 z" /></g><g
         transform="scale(1.20247)"
         id="g632"><path
           id="path634"
           style="fill:none;stroke:#e6e6e6;stroke-width:187.11500549;stroke-linecap:round;stroke-linejoin:round;stroke-miterlimit:4;stroke-dasharray:none;stroke-opacity:1"
           d="m 16300,7409.05 -239.3,138.58 0.5,-276.47 0.3,276.51 -239.2,-138.62 239.7,137.93 -239.7,137.84 239.3,-138.58 -0.4,276.46 -0.4,-276.51 239.2,138.63 -239.7,-137.94 z" /></g><g
         transform="scale(1.50757)"
         id="g636"><path
           id="path638"
           style="fill:#00ccff;fill-opacity:1;fill-rule:nonzero;stroke:none"
           d="m 16300,7002.41 v -96.35 96.35" /></g><g
         transform="scale(1.50757)"
         id="g640"><path
           id="path642"
           style="fill:none;stroke:#00ccff;stroke-width:94.0134964;stroke-linecap:round;stroke-linejoin:round;stroke-miterlimit:4;stroke-dasharray:none;stroke-opacity:1"
           d="m 16300,7002.41 v -96.35 z" /></g><g
         transform="scale(1.56413)"
         id="g644"><path
           id="path646"
           style="fill:#00ccff;fill-opacity:1;fill-rule:nonzero;stroke:none"
           d="m 16300,6835.18 v -92.86 92.86" /></g><g
         transform="scale(1.56413)"
         id="g648"><path
           id="path650"
           style="fill:none;stroke:#00ccff;stroke-width:90.6140976;stroke-linecap:round;stroke-linejoin:round;stroke-miterlimit:4;stroke-dasharray:none;stroke-opacity:1"
           d="m 16300,6835.18 v -92.86 z" /></g><g
         transform="scale(1.53332)"
         id="g652"><path
           id="path654"
           style="fill:#00ccff;fill-opacity:1;fill-rule:nonzero;stroke:none"
           d="m 16300,6419.67 v -94.72 94.72" /></g><g
         transform="scale(1.53332)"
         id="g656"><path
           id="path658"
           style="fill:none;stroke:#00ccff;stroke-width:92.43489838;stroke-linecap:round;stroke-linejoin:round;stroke-miterlimit:4;stroke-dasharray:none;stroke-opacity:1"
           d="m 16300,6419.67 v -94.72 z" /></g><g
         transform="scale(1.57173)"
         id="g660"><path
           id="path662"
           style="fill:#00ccff;fill-opacity:1;fill-rule:nonzero;stroke:none"
           d="m 16300,6177.84 v -92.41 92.41" /></g><g
         transform="scale(1.57173)"
         id="g664"><path
           id="path666"
           style="fill:none;stroke:#00ccff;stroke-width:90.17610168;stroke-linecap:round;stroke-linejoin:round;stroke-miterlimit:4;stroke-dasharray:none;stroke-opacity:1"
           d="m 16300,6177.84 v -92.41 z" /></g><g
         transform="scale(1.51686)"
         id="g668"><path
           id="path670"
           style="fill:#00ccff;fill-opacity:1;fill-rule:nonzero;stroke:none"
           d="m 16300,5974.89 v -95.75 95.75" /></g><g
         transform="scale(1.51686)"
         id="g672"><path
           id="path674"
           style="fill:none;stroke:#00ccff;stroke-width:93.43800354;stroke-linecap:round;stroke-linejoin:round;stroke-miterlimit:4;stroke-dasharray:none;stroke-opacity:1"
           d="m 16300,5974.89 v -95.75 z" /></g><g
         transform="scale(1.55906)"
         id="g676"><path
           id="path678"
           style="fill:#00ccff;fill-opacity:1;fill-rule:nonzero;stroke:none"
           d="m 16300,5625.49 v -93.16 93.16" /></g><g
         transform="scale(1.55906)"
         id="g680"><path
           id="path682"
           style="fill:none;stroke:#00ccff;stroke-width:90.90840149;stroke-linecap:round;stroke-linejoin:round;stroke-miterlimit:4;stroke-dasharray:none;stroke-opacity:1"
           d="m 16300,5625.49 v -93.16 z" /></g><g
         transform="scale(1.74995)"
         id="g684"><path
           id="path686"
           style="fill:#afdde9;fill-opacity:1;fill-rule:nonzero;stroke:none"
           d="m 14734.1,7980.04 c -294.9,-0.31 -547.7,-210.81 -601.4,-500.8 -256.7,-79.14 -431.8,-316.41 -431.8,-585.06 0,-162.38 64.5,-318.1 179.3,-432.92 114.8,-114.82 270.5,-179.32 432.9,-179.32 123.7,0 244.6,37.49 346.6,107.52 102,-70.03 222.8,-107.52 346.5,-107.52 121.4,0 240,36.06 340.8,103.6 100.8,-67.54 219.4,-103.6 340.8,-103.6 338.1,0 612.2,274.11 612.2,612.24 0,338.13 -274.1,612.24 -612.2,612.24 -121.4,0 -240,-36.06 -340.8,-103.61 -0.4,0.23 -0.7,0.47 -1.1,0.7 -18.9,323.7 -286.9,576.52 -611.2,576.53 -0.2,0 -0.4,0 -0.6,0" /></g><g
         transform="scale(1.63503)"
         id="g688"><path
           id="path690"
           style="fill:none;stroke:#e6e6e6;stroke-width:137.61300659;stroke-linecap:round;stroke-linejoin:round;stroke-miterlimit:4;stroke-dasharray:none;stroke-opacity:1"
           d="m 16300,6222.78 -176,101.92 0.4,-203.33 0.2,203.36 -175.9,-101.95 176.3,101.44 -176.3,101.37 176,-101.91 -0.3,203.32 -0.3,-203.36 175.9,101.95 -176.3,-101.44 z" /></g><g
         transform="scale(1.7034)"
         id="g692"><path
           id="path694"
           style="fill:none;stroke:#e6e6e6;stroke-width:132.08900452;stroke-linecap:round;stroke-linejoin:round;stroke-miterlimit:4;stroke-dasharray:none;stroke-opacity:1"
           d="m 16300,5892.22 -168.9,97.83 0.3,-195.17 0.3,195.2 -168.9,-97.86 169.2,97.37 -169.2,97.31 168.9,-97.83 -0.3,195.16 -0.3,-195.19 168.9,97.86 -169.2,-97.38 z" /></g><g
         transform="scale(1.65191)"
         id="g696"><path
           id="path698"
           style="fill:none;stroke:#e6e6e6;stroke-width:136.20599365;stroke-linecap:round;stroke-linejoin:round;stroke-miterlimit:4;stroke-dasharray:none;stroke-opacity:1"
           d="m 16300,5334.58 -174.2,100.87 0.4,-201.24 0.2,201.28 -174.1,-100.91 174.5,100.4 -174.5,100.34 174.2,-100.88 -0.3,201.25 -0.3,-201.28 174.1,100.91 -174.4,-100.41 z" /></g><path
         id="path700"
         style="fill:none;stroke:#b7c8be;stroke-width:225;stroke-linecap:round;stroke-linejoin:round;stroke-miterlimit:4;stroke-dasharray:none;stroke-opacity:1"
         d="M 5143.24,3747.61 H 2108.55 m 3099,506.16 c -14.89,20.93 5.77,44.76 25.71,49.41 12.16,2.83 24.49,1.37 36.09,-3.35 68.15,-27.71 65.65,-122.19 28.96,-173.6 -65.63,-91.97 -198.85,-82 -276.15,-10.64 -113.44,104.73 -97.97,288.37 3.88,393.27 135.75,139.82 362.14,114.81 490.51,-24.79 162.87,-177.13 133.13,-455.48 -36.72,-612.94 -79.04,-73.27 -182.34,-116.07 -288.88,-122.33 M 4910.16,3387.63 H 1875.47 m 3099,-506.17 c -14.9,-20.93 5.76,-44.76 25.71,-49.41 12.16,-2.84 24.49,-1.37 36.09,3.35 68.15,27.71 65.64,122.19 28.96,173.6 -65.63,91.97 -198.86,82 -276.16,10.64 -113.44,-104.73 -97.97,-288.37 3.88,-393.28 135.75,-139.81 362.15,-114.8 490.51,24.8 162.88,177.13 133.14,455.48 -36.72,612.94 -79.04,73.27 -182.33,116.07 -288.87,122.33 m -783.76,725.95 H 1887.73 m 2350.68,506.16 c -14.89,20.94 5.77,44.76 25.71,49.41 12.16,2.84 24.49,1.37 36.09,-3.35 68.15,-27.71 65.65,-122.19 28.96,-173.6 -65.63,-91.97 -198.85,-82 -276.15,-10.63 -113.44,104.72 -97.97,288.37 3.88,393.27 135.75,139.81 362.14,114.8 490.51,-24.8 162.87,-177.13 133.13,-455.48 -36.72,-612.94 -79.04,-73.27 -182.34,-116.07 -288.88,-122.33" /><path
         id="path702"
         style="fill:#e6e6e6;fill-opacity:1;fill-rule:nonzero;stroke:none"
         d="m 10894.2,5219.22 c -624.9,-197.84 -1049.61,-778.18 -1049.61,-1434.17 0,-398.94 158.31,-781.55 440.21,-1063.65 281.8,-282.09 664.1,-440.57 1062.7,-440.57 541.5,0 1041.2,291.54 1307.9,763.17 -0.6,-0.21 -1.3,-0.41 -1.9,-0.62 -1.8,-0.56 -3.6,-1.11 -5.3,-1.67 -1.8,-0.55 -3.6,-1.1 -5.4,-1.64 -1.7,-0.55 -3.5,-1.09 -5.3,-1.63 -1.8,-0.54 -3.6,-1.08 -5.3,-1.61 -1.8,-0.53 -3.6,-1.06 -5.4,-1.58 -1.8,-0.53 -3.6,-1.05 -5.4,-1.57 -1.7,-0.52 -3.5,-1.04 -5.3,-1.55 -1.8,-0.51 -3.6,-1.02 -5.4,-1.53 -1.8,-0.5 -3.6,-1.01 -5.3,-1.51 -1.8,-0.5 -3.6,-0.99 -5.4,-1.48 -1.8,-0.5 -3.6,-0.98 -5.4,-1.47 -1.8,-0.49 -3.6,-0.97 -5.4,-1.45 -1.8,-0.48 -3.6,-0.96 -5.4,-1.42 -1.8,-0.48 -3.6,-0.95 -5.4,-1.41 -1.8,-0.47 -3.6,-0.93 -5.4,-1.4 -1.8,-0.46 -3.6,-0.91 -5.4,-1.36 -1.8,-0.46 -3.6,-0.9 -5.4,-1.35 -1.8,-0.45 -3.6,-0.89 -5.4,-1.33 -1.8,-0.44 -3.6,-0.87 -5.5,-1.3 -1.8,-0.44 -3.6,-0.87 -5.4,-1.29 -1.8,-0.43 -3.6,-0.85 -5.4,-1.27 -1.8,-0.42 -3.6,-0.83 -5.5,-1.24 -1.8,-0.42 -3.6,-0.83 -5.4,-1.23 -1.8,-0.41 -3.6,-0.81 -5.4,-1.21 -1.9,-0.4 -3.7,-0.79 -5.5,-1.19 -1.8,-0.39 -3.6,-0.78 -5.5,-1.16 -1.8,-0.39 -3.6,-0.76 -5.4,-1.14 -1.8,-0.38 -3.7,-0.76 -5.5,-1.13 -1.8,-0.37 -3.6,-0.74 -5.4,-1.11 -1.9,-0.36 -3.7,-0.72 -5.5,-1.08 -1.8,-0.36 -3.7,-0.71 -5.5,-1.06 -1.8,-0.36 -3.6,-0.71 -5.5,-1.05 -1.8,-0.35 -3.6,-0.69 -5.5,-1.03 -1.8,-0.33 -3.6,-0.67 -5.4,-1 -1.9,-0.33 -3.7,-0.66 -5.5,-0.98 -1.9,-0.32 -3.7,-0.65 -5.5,-0.97 -1.9,-0.31 -3.7,-0.62 -5.5,-0.93 -1.9,-0.32 -3.7,-0.62 -5.5,-0.92 -1.9,-0.31 -3.7,-0.61 -5.5,-0.91 -1.9,-0.29 -3.7,-0.59 -5.5,-0.88 -1.9,-0.29 -3.7,-0.57 -5.6,-0.86 -1.8,-0.28 -3.6,-0.56 -5.5,-0.84 -1.8,-0.27 -3.7,-0.55 -5.5,-0.82 -1.8,-0.27 -3.7,-0.53 -5.5,-0.8 -1.9,-0.26 -3.7,-0.52 -5.5,-0.77 -1.9,-0.26 -3.7,-0.51 -5.6,-0.76 -1.8,-0.25 -3.7,-0.5 -5.5,-0.74 -1.8,-0.24 -3.7,-0.48 -5.5,-0.71 -1.9,-0.24 -3.7,-0.47 -5.6,-0.7 -1.8,-0.23 -3.7,-0.46 -5.5,-0.68 -1.8,-0.22 -3.7,-0.44 -5.5,-0.65 -1.9,-0.21 -3.7,-0.42 -5.6,-0.63 -1.8,-0.21 -3.7,-0.42 -5.5,-0.61 -1.9,-0.21 -3.7,-0.4 -5.6,-0.6 -1.8,-0.19 -3.7,-0.38 -5.5,-0.57 -1.9,-0.18 -3.7,-0.37 -5.6,-0.55 -1.8,-0.17 -3.7,-0.35 -5.5,-0.53 -1.9,-0.17 -3.7,-0.34 -5.6,-0.51 -1.8,-0.16 -3.7,-0.33 -5.5,-0.49 -1.9,-0.15 -3.7,-0.31 -5.6,-0.46 -1.9,-0.15 -3.7,-0.3 -5.6,-0.45 -1.8,-0.15 -3.7,-0.29 -5.5,-0.43 -1.9,-0.14 -3.7,-0.27 -5.6,-0.4 -1.8,-0.13 -3.7,-0.26 -5.6,-0.39 -1.8,-0.12 -3.7,-0.24 -5.5,-0.36 -1.9,-0.12 -3.7,-0.24 -5.6,-0.35 -1.8,-0.11 -3.7,-0.22 -5.6,-0.32 -1.8,-0.1 -3.7,-0.2 -5.5,-0.3 -1.9,-0.1 -3.7,-0.19 -5.6,-0.29 -1.9,-0.09 -3.7,-0.18 -5.6,-0.27 -1.8,-0.08 -3.7,-0.16 -5.6,-0.23 -1.8,-0.08 -3.7,-0.16 -5.5,-0.23 -1.9,-0.07 -3.7,-0.14 -5.6,-0.2 -1.9,-0.07 -3.7,-0.13 -5.6,-0.19 -1.8,-0.06 -3.7,-0.11 -5.6,-0.16 -1.8,-0.04 -3.7,-0.09 -5.5,-0.13 -1.9,-0.05 -3.7,-0.09 -5.6,-0.13 -1.9,-0.03 -3.7,-0.07 -5.6,-0.1 -1.8,-0.02 -3.7,-0.05 -5.6,-0.07 -1.8,-0.03 -3.7,-0.06 -5.5,-0.08 -1.9,-0.03 -3.8,-0.05 -5.6,-0.07 -1.9,-0.01 -3.7,-0.01 -5.6,0 -0.3,0 -0.6,0 -1,0 -1.8,-0.01 -3.7,-0.01 -5.5,0 -1.9,0.02 -3.8,0.04 -5.6,0.07 -1.9,0.02 -3.7,0.05 -5.6,0.08 -1.9,0.02 -3.7,0.05 -5.6,0.07 -1.8,0.03 -3.7,0.06 -5.6,0.09 -1.8,0.04 -3.7,0.08 -5.5,0.12 -1.9,0.04 -3.8,0.09 -5.6,0.13 -1.9,0.05 -3.7,0.1 -5.6,0.16 -1.8,0.05 -3.7,0.11 -5.6,0.18 -1.8,0.06 -3.7,0.13 -5.5,0.2 -1.9,0.07 -3.8,0.14 -5.6,0.22 -1.9,0.07 -3.7,0.15 -5.6,0.23 -1.8,0.08 -3.7,0.17 -5.6,0.26 -1.8,0.09 -3.7,0.19 -5.5,0.29 -1.9,0.1 -3.7,0.19 -5.6,0.3 -1.9,0.1 -3.7,0.21 -5.6,0.32 -1.8,0.11 -3.7,0.23 -5.5,0.35 -1.9,0.11 -3.8,0.23 -5.6,0.36 -1.9,0.12 -3.7,0.25 -5.6,0.39 -1.8,0.13 -3.7,0.26 -5.5,0.39 -1.9,0.14 -3.7,0.28 -5.6,0.42 -1.9,0.15 -3.7,0.3 -5.6,0.45 -1.8,0.16 -3.7,0.31 -5.5,0.47 -1.9,0.16 -3.7,0.32 -5.6,0.49 -1.8,0.16 -3.7,0.33 -5.5,0.5 -1.9,0.17 -3.7,0.34 -5.6,0.52 -1.8,0.18 -3.7,0.37 -5.5,0.55 -1.9,0.19 -3.7,0.38 -5.6,0.57 -1.8,0.2 -3.7,0.39 -5.5,0.59 -1.9,0.2 -3.7,0.41 -5.6,0.62 -1.8,0.2 -3.7,0.41 -5.5,0.62 -1.9,0.21 -3.7,0.43 -5.6,0.65 -1.8,0.22 -3.7,0.45 -5.5,0.67 -1.8,0.22 -3.7,0.46 -5.5,0.69 -1.9,0.23 -3.7,0.47 -5.6,0.71 -1.8,0.24 -3.7,0.49 -5.5,0.74 -1.8,0.25 -3.7,0.5 -5.5,0.75 -1.9,0.26 -3.7,0.51 -5.6,0.78 -1.8,0.26 -3.6,0.52 -5.5,0.79 -1.8,0.27 -3.7,0.55 -5.5,0.82 -1.8,0.28 -3.7,0.55 -5.5,0.84 -1.9,0.28 -3.7,0.56 -5.5,0.85 -1.9,0.29 -3.7,0.58 -5.5,0.88 -1.9,0.3 -3.7,0.59 -5.5,0.89 -1.9,0.31 -3.7,0.61 -5.5,0.93 -1.9,0.3 -3.7,0.62 -5.5,0.93 -1.9,0.32 -3.7,0.64 -5.5,0.96 -1.9,0.33 -3.7,0.65 -5.5,0.98 -1.9,0.33 -3.7,0.67 -5.5,1 -1.9,0.34 -3.7,0.68 -5.5,1.02 -1.8,0.34 -3.7,0.69 -5.5,1.04 -1.8,0.35 -3.6,0.71 -5.5,1.06 -1.8,0.36 -3.6,0.72 -5.4,1.08 -1.9,0.37 -3.7,0.73 -5.5,1.1 -1.8,0.37 -3.6,0.75 -5.5,1.12 -1.8,0.38 -3.6,0.76 -5.4,1.15 -1.9,0.38 -3.7,0.77 -5.5,1.16 -1.8,0.39 -3.6,0.79 -5.4,1.19 -1.9,0.39 -3.7,0.8 -5.5,1.2 -1.8,0.4 -3.6,0.81 -5.4,1.22 -1.8,0.41 -3.7,0.83 -5.5,1.25 -1.8,0.41 -3.6,0.83 -5.4,1.26 -1.8,0.42 -3.6,0.85 -5.4,1.28 -1.8,0.43 -3.6,0.87 -5.5,1.3 -1.8,0.44 -3.6,0.89 -5.4,1.33 -1.8,0.44 -3.6,0.89 -5.4,1.34 -1.8,0.45 -3.6,0.91 -5.4,1.37 -1.8,0.46 -3.6,0.92 -5.4,1.38 -1.8,0.47 -3.6,0.94 -5.4,1.41 -1.8,0.47 -3.6,0.94 -5.4,1.42 -1.8,0.48 -3.6,0.96 -5.4,1.45 -1.8,0.48 -3.6,0.97 -5.4,1.46 -1.8,0.49 -3.6,0.99 -5.4,1.49 -1.7,0.49 -3.5,1 -5.3,1.5 -1.8,0.5 -3.6,1.01 -5.4,1.52 -1.8,0.51 -3.6,1.03 -5.4,1.55 -1.7,0.52 -3.5,1.03 -5.3,1.56 -1.8,0.53 -3.6,1.06 -5.4,1.59 -1.7,0.53 -3.5,1.06 -5.3,1.6 -1.8,0.54 -3.6,1.08 -5.3,1.62 -1.8,0.55 -3.6,1.1 -5.4,1.65 -1.7,0.55 -3.5,1.1 -5.3,1.66 -1.8,0.56 -3.5,1.12 -5.3,1.69 -1.8,0.56 -3.6,1.13 -5.3,1.7 -1.8,0.57 -3.6,1.14 -5.3,1.72 -1.8,0.58 -3.6,1.16 -5.3,1.74 -1.8,0.59 -3.6,1.17 -5.3,1.77 -1.8,0.59 -3.6,1.18 -5.3,1.78 -1.8,0.6 -3.5,1.2 -5.3,1.8 -1.8,0.6 -3.5,1.21 -5.3,1.82 -1.7,0.61 -3.5,1.23 -5.2,1.84 -1.8,0.62 -3.5,1.24 -5.3,1.86 -1.7,0.63 -3.5,1.25 -5.2,1.88 -1.8,0.63 -3.5,1.26 -5.3,1.9 -1.7,0.64 -3.5,1.28 -5.2,1.92 -1.8,0.64 -3.5,1.29 -5.3,1.94 -1.7,0.65 -3.5,1.3 -5.2,1.95 -1.7,0.66 -3.5,1.32 -5.2,1.98 -1.7,0.67 -3.5,1.33 -5.2,2 -1.8,0.67 -3.5,1.34 -5.2,2.02 -1.8,0.67 -3.5,1.35 -5.2,2.03 -1.7,0.68 -3.5,1.37 -5.2,2.05 -1.7,0.69 -3.5,1.38 -5.2,2.07 -1.7,0.7 -3.4,1.4 -5.2,2.1 -1.7,0.7 -3.4,1.4 -5.1,2.11 -1.7,0.71 -3.5,1.42 -5.2,2.13 -1.7,0.72 -3.4,1.43 -5.1,2.15 -1.7,0.72 -3.5,1.44 -5.2,2.17 -1.7,0.73 -3.4,1.46 -5.1,2.19 -1.7,0.73 -3.4,1.47 -5.1,2.21 -1.7,0.73 -3.4,1.48 -5.1,2.22 -1.7,0.75 -3.4,1.49 -5.1,2.25 -1.7,0.75 -3.4,1.51 -5.1,2.26 -1.7,0.76 -3.4,1.52 -5.1,2.29 -1.7,0.76 -3.4,1.53 -5.1,2.3 -1.7,0.77 -3.4,1.55 -5.1,2.32 -1.7,0.78 -3.4,1.56 -5.1,2.34 -1.6,0.78 -3.3,1.57 -5,2.36 -1.7,0.79 -3.4,1.58 -5.1,2.38 -1.6,0.79 -3.3,1.59 -5,2.39 -1.7,0.81 -3.4,1.61 -5,2.42 -1.7,0.81 -3.4,1.62 -5.1,2.43 -1.6,0.82 -3.3,1.64 -5,2.46 -1.6,0.82 -3.3,1.64 -5,2.47 -1.6,0.82 -3.3,1.65 -5,2.48 -1.6,0.84 -3.3,1.68 -4.9,2.51 -1.7,0.84 -3.4,1.68 -5,2.53 -1.7,0.84 -3.3,1.69 -5,2.55 -1.6,0.85 -3.3,1.7 -4.9,2.56 -1.7,0.86 -3.3,1.72 -5,2.58 -1.6,0.86 -3.3,1.73 -4.9,2.6 -1.7,0.87 -3.3,1.74 -5,2.62 -1.6,0.87 -3.2,1.75 -4.9,2.64 -1.6,0.88 -3.2,1.77 -4.9,2.65 -1.6,0.89 -3.2,1.78 -4.9,2.68 -1.6,0.89 -3.2,1.79 -4.9,2.69 -1.6,0.89 -3.2,1.8 -4.8,2.71 -1.7,0.9 -3.3,1.81 -4.9,2.72 -1.6,0.92 -3.2,1.83 -4.9,2.75 -1.6,0.92 -3.2,1.84 -4.8,2.76 -1.6,0.93 -3.2,1.85 -4.9,2.79 -1.6,0.93 -3.2,1.86 -4.8,2.79 -1.6,0.94 -3.2,1.88 -4.8,2.82 -1.6,0.94 -3.2,1.89 -4.8,2.84 -1.6,0.95 -3.2,1.9 -4.8,2.85 -1.6,0.95 -3.2,1.91 -4.8,2.87 -1.6,0.96 -3.2,1.92 -4.8,2.89 -1.5,0.97 -3.1,1.94 -4.7,2.91 -1.6,0.97 -3.2,1.95 -4.8,2.92 -1.6,0.98 -3.1,1.96 -4.7,2.95 -1.6,0.98 -3.2,1.96 -4.7,2.95 -1.6,0.99 -3.2,1.99 -4.8,2.98 -1.5,1 -3.1,2 -4.7,3 -1.5,1 -3.1,2 -4.7,3.01 -1.5,1.01 -3.1,2.01 -4.7,3.02 -1.5,1.02 -3.1,2.03 -4.6,3.05 -1.6,1.02 -3.1,2.04 -4.7,3.06 -1.5,1.03 -3.1,2.06 -4.6,3.09 -1.6,1.03 -3.1,2.06 -4.7,3.1 -1.5,1.03 -3.1,2.07 -4.6,3.11 -1.6,1.04 -3.1,2.09 -4.6,3.14 -1.6,1.04 -3.1,2.1 -4.6,3.15 -1.6,1.05 -3.1,2.11 -4.6,3.16 -1.6,1.06 -3.1,2.12 -4.6,3.19 -1.5,1.06 -3.1,2.13 -4.6,3.2 -1.5,1.07 -3,2.15 -4.5,3.22 -1.6,1.07 -3.1,2.15 -4.6,3.23 -1.5,1.09 -3,2.17 -4.5,3.26 -1.5,1.08 -3,2.17 -4.6,3.26 -1.5,1.1 -3,2.19 -4.5,3.29 -1.5,1.1 -3,2.2 -4.5,3.3 -1.5,1.11 -3,2.21 -4.4,3.32 -1.5,1.11 -3,2.22 -4.5,3.34 -1.5,1.11 -3,2.23 -4.5,3.35 -1.5,1.12 -2.9,2.25 -4.4,3.37 -1.5,1.13 -3,2.26 -4.5,3.38 -1.4,1.14 -2.9,2.27 -4.4,3.41 -1.5,1.13 -2.9,2.27 -4.4,3.42 -1.5,1.14 -2.9,2.28 -4.4,3.43 -1.5,1.15 -2.9,2.3 -4.4,3.45 -1.4,1.15 -2.9,2.31 -4.4,3.47 -1.4,1.16 -2.9,2.32 -4.3,3.48 -1.5,1.17 -2.9,2.33 -4.4,3.51 -1.4,1.16 -2.9,2.33 -4.3,3.51 -1.4,1.18 -2.9,2.35 -4.3,3.53 -1.5,1.18 -2.9,2.37 -4.3,3.55 -1.5,1.19 -2.9,2.37 -4.3,3.56 -1.4,1.19 -2.9,2.38 -4.3,3.58 -1.4,1.19 -2.8,2.39 -4.3,3.6 -1.4,1.2 -2.8,2.4 -4.2,3.61 -1.4,1.2 -2.9,2.41 -4.3,3.63 -1.4,1.21 -2.8,2.42 -4.2,3.64 -1.4,1.21 -2.8,2.43 -4.2,3.66 -1.4,1.22 -2.8,2.45 -4.2,3.67 -1.4,1.23 -2.8,2.46 -4.2,3.69 -1.4,1.24 -2.8,2.47 -4.2,3.71 -1.4,1.23 -2.7,2.48 -4.1,3.72 -1.4,1.24 -2.8,2.49 -4.2,3.74 -1.4,1.24 -2.7,2.49 -4.1,3.75 -1.4,1.25 -2.8,2.51 -4.1,3.77 -1.4,1.25 -2.8,2.52 -4.1,3.78 -1.4,1.26 -2.8,2.53 -4.1,3.8 -1.4,1.26 -2.7,2.53 -4.1,3.81 -1.3,1.27 -2.7,2.55 -4.1,3.83 -1.3,1.27 -2.7,2.55 -4,3.84 -1.3,1.28 -2.7,2.57 -4,3.85 -1.4,1.3 -2.7,2.59 -4.1,3.88 -1.3,1.3 -2.6,2.59 -4,3.89 -1.3,1.3 -2.6,2.6 -3.9,3.9 -1.4,1.31 -2.7,2.61 -4,3.92 -1.3,1.31 -2.7,2.62 -4,3.93 -1.3,1.31 -2.6,2.63 -3.9,3.95 -1.3,1.32 -2.7,2.64 -4,3.96 -1.3,1.32 -2.6,2.65 -3.9,3.98 -1.3,1.33 -2.6,2.65 -3.9,3.99 -1.3,1.33 -2.6,2.66 -3.9,4 -1.3,1.34 -2.5,2.68 -3.8,4.02 -1.3,1.34 -2.6,2.69 -3.9,4.03 -1.3,1.35 -2.6,2.7 -3.8,4.05 -1.3,1.35 -2.6,2.71 -3.9,4.07 -1.2,1.35 -2.5,2.71 -3.8,4.07 -1.2,1.36 -2.5,2.73 -3.8,4.1 -1.2,1.36 -2.5,2.73 -3.8,4.1 -1.2,1.37 -2.5,2.74 -3.7,4.11 -1.3,1.38 -2.5,2.76 -3.8,4.14 -1.2,1.38 -2.5,2.76 -3.7,4.15 -1.3,1.38 -2.5,2.76 -3.7,4.16 -1.3,1.39 -2.5,2.78 -3.7,4.17 -1.3,1.39 -2.5,2.79 -3.7,4.19 -1.3,1.4 -2.5,2.8 -3.7,4.2 -1.2,1.4 -2.4,2.81 -3.7,4.22 -1.2,1.4 -2.4,2.81 -3.6,4.22 -1.2,1.42 -2.4,2.83 -3.6,4.25 -1.2,1.41 -2.4,2.83 -3.6,4.25 -1.2,1.42 -2.4,2.85 -3.6,4.27 -1.2,1.43 -2.4,2.85 -3.6,4.28 -1.2,1.43 -2.4,2.87 -3.6,4.3 -1.2,1.43 -2.3,2.87 -3.5,4.31 -1.2,1.44 -2.4,2.88 -3.6,4.32 -1.1,1.45 -2.3,2.89 -3.5,4.34 -1.1,1.45 -2.3,2.89 -3.5,4.34 -1.1,1.46 -2.3,2.91 -3.5,4.37 -1.1,1.45 -2.3,2.91 -3.4,4.37 -1.2,1.46 -2.3,2.92 -3.5,4.39 -1.1,1.46 -2.3,2.93 -3.4,4.4 -1.2,1.47 -2.3,2.94 -3.4,4.41 -1.2,1.48 -2.3,2.95 -3.4,4.43 -1.2,1.47 -2.3,2.95 -3.4,4.43 -1.1,1.48 -2.3,2.97 -3.4,4.45 -1.1,1.49 -2.2,2.98 -3.3,4.47 -1.2,1.49 -2.3,2.98 -3.4,4.47 -1.1,1.5 -2.2,3 -3.3,4.49 -1.1,1.5 -2.2,3 -3.3,4.5 -1.1,1.5 -2.2,3.01 -3.3,4.51 -1.1,1.51 -2.2,3.02 -3.2,4.52 -1.1,1.52 -2.2,3.03 -3.3,4.55 -1.1,1.51 -2.2,3.02 -3.2,4.54 -1.1,1.52 -2.2,3.04 -3.3,4.56 -1,1.53 -2.1,3.05 -3.2,4.58 -1,1.52 -2.1,3.05 -3.1,4.58 -1.1,1.53 -2.2,3.06 -3.2,4.6 -1.1,1.53 -2.1,3.07 -3.2,4.61 -1,1.53 -2.1,3.07 -3.1,4.61 -1,1.55 -2.1,3.09 -3.1,4.64 -1,1.54 -2.1,3.09 -3.1,4.64 -1,1.55 -2.1,3.1 -3.1,4.65 -1,1.55 -2,3.11 -3.1,4.67 -1,1.56 -2,3.11 -3,4.68 -1,1.56 -2,3.12 -3,4.68 -1,1.57 -2,3.14 -3,4.7 -1,1.57 -2,3.14 -3,4.71 -1,1.58 -2,3.15 -3,4.73 -1,1.57 -2,3.15 -3,4.73 -1,1.58 -1.9,3.16 -2.9,4.74 -1,1.59 -2,3.17 -2.9,4.76 -1,1.59 -2,3.17 -3,4.76 -0.9,1.59 -1.9,3.18 -2.8,4.78 -1,1.59 -2,3.19 -2.9,4.79 -1,1.59 -1.9,3.19 -2.9,4.8 -0.9,1.6 -1.9,3.2 -2.8,4.8 -0.9,1.61 -1.9,3.21 -2.8,4.82 -1,1.61 -1.9,3.22 -2.8,4.83 -1,1.61 -1.9,3.23 -2.8,4.84 -0.9,1.61 -1.8,3.23 -2.8,4.85 -0.9,1.62 -1.8,3.24 -2.7,4.86 -0.9,1.62 -1.8,3.25 -2.7,4.87 -1,1.63 -1.9,3.25 -2.8,4.88 -0.9,1.63 -1.8,3.26 -2.6,4.89 -0.9,1.63 -1.8,3.27 -2.7,4.9 -0.9,1.64 -1.8,3.27 -2.7,4.91 -0.9,1.64 -1.7,3.28 -2.6,4.92 -0.9,1.64 -1.8,3.29 -2.6,4.93 -0.9,1.65 -1.8,3.29 -2.6,4.94 -0.9,1.65 -1.8,3.3 -2.6,4.95 -0.9,1.65 -1.7,3.3 -2.6,4.95 -0.8,1.66 -1.7,3.32 -2.5,4.98 -0.9,1.65 -1.7,3.31 -2.6,4.97 -0.8,1.67 -1.6,3.33 -2.5,4.99 -0.8,1.67 -1.6,3.33 -2.5,5 -0.8,1.67 -1.6,3.33 -2.4,5 -0.8,1.67 -1.7,3.35 -2.5,5.02 -0.8,1.67 -1.6,3.35 -2.4,5.02 -0.8,1.68 -1.6,3.36 -2.4,5.04 -0.8,1.68 -1.6,3.35 -2.4,5.04 -0.8,1.68 -1.6,3.36 -2.4,5.04 -0.8,1.69 -1.6,3.38 -2.4,5.07 -0.8,1.68 -1.5,3.37 -2.3,5.06 -0.8,1.69 -1.6,3.38 -2.3,5.08 -0.8,1.69 -1.6,3.39 -2.3,5.09 -0.8,1.69 -1.6,3.39 -2.3,5.09 -0.8,1.7 -1.5,3.4 -2.3,5.1 -0.7,1.7 -1.5,3.41 -2.2,5.11 -0.8,1.71 -1.5,3.41 -2.3,5.13 -0.7,1.7 -1.4,3.41 -2.2,5.12 -0.7,1.71 -1.4,3.42 -2.2,5.13 -0.7,1.72 -1.4,3.43 -2.1,5.15 -0.7,1.72 -1.5,3.44 -2.2,5.15 -0.7,1.72 -1.4,3.44 -2.1,5.16 -0.7,1.72 -1.4,3.44 -2.1,5.16 -0.7,1.73 -1.4,3.45 -2.1,5.18 -0.7,1.73 -1.4,3.46 -2.1,5.19 -0.7,1.72 -1.4,3.45 -2.1,5.18 -0.6,1.74 -1.3,3.47 -2,5.2 -0.7,1.73 -1.3,3.47 -2,5.21 -0.7,1.74 -1.3,3.47 -2,5.21 -0.7,1.74 -1.3,3.48 -2,5.22 -0.6,1.74 -1.3,3.49 -1.9,5.23 -0.7,1.75 -1.3,3.49 -2,5.24 -0.6,1.74 -1.3,3.49 -1.9,5.24 -0.6,1.75 -1.3,3.5 -1.9,5.25 -0.6,1.75 -1.3,3.5 -1.9,5.26 -0.6,1.75 -1.2,3.5 -1.8,5.26 -0.7,1.75 -1.3,3.51 -1.9,5.27 -0.6,1.76 -1.2,3.52 -1.8,5.28 -0.6,1.76 -1.2,3.52 -1.8,5.28 -0.6,1.77 -1.2,3.53 -1.8,5.29 -0.6,1.76 -1.2,3.53 -1.8,5.3 -0.6,1.76 -1.1,3.53 -1.7,5.3 -0.6,1.77 -1.2,3.54 -1.7,5.31 -0.6,1.77 -1.2,3.55 -1.7,5.32 -0.6,1.77 -1.2,3.55 -1.7,5.32 -0.6,1.78 -1.1,3.55 -1.7,5.33 -0.5,1.77 -1.1,3.55 -1.6,5.33 -0.6,1.78 -1.1,3.56 -1.7,5.34 -0.5,1.78 -1,3.57 -1.6,5.35 -0.5,1.78 -1,3.57 -1.6,5.35 -0.5,1.79 -1,3.58 -1.5,5.37 -0.5,1.78 -1.1,3.57 -1.6,5.36 -0.5,1.79 -1,3.58 -1.5,5.37 -0.5,1.79 -1,3.58 -1.5,5.38 -0.5,1.79 -1,3.58 -1.5,5.38 -0.5,1.79 -1,3.59 -1.5,5.38 -0.4,1.8 -0.9,3.6 -1.4,5.4 -0.5,1.8 -1,3.6 -1.4,5.4 -0.5,1.8 -1,3.6 -1.4,5.4 -0.5,1.8 -1,3.6 -1.4,5.41 -0.5,1.8 -0.9,3.61 -1.4,5.41 -0.4,1.8 -0.9,3.61 -1.3,5.41 -0.5,1.81 -0.9,3.62 -1.4,5.43 -0.4,1.81 -0.8,3.62 -1.3,5.43 -0.4,1.81 -0.8,3.62 -1.2,5.43 -0.5,1.82 -0.9,3.63 -1.3,5.44 -0.4,1.82 -0.9,3.63 -1.3,5.45 -0.4,1.81 -0.8,3.63 -1.2,5.44 -0.4,1.81 -0.8,3.63 -1.2,5.45 -0.4,1.82 -0.8,3.64 -1.2,5.46 -0.4,1.82 -0.8,3.64 -1.1,5.46 -0.4,1.82 -0.8,3.64 -1.2,5.46 -0.4,1.83 -0.7,3.65 -1.1,5.47 -0.4,1.83 -0.8,3.65 -1.1,5.47 -0.4,1.83 -0.7,3.66 -1.1,5.48 -0.4,1.83 -0.7,3.65 -1.1,5.48 -0.3,1.83 -0.7,3.66 -1,5.49 -0.4,1.83 -0.7,3.66 -1,5.49 -0.4,1.83 -0.7,3.66 -1,5.49 -0.4,1.83 -0.7,3.66 -1,5.5 -0.3,1.83 -0.7,3.66 -1,5.5 -0.3,1.83 -0.6,3.66 -0.9,5.5 -0.3,1.84 -0.6,3.67 -0.9,5.51 -0.3,1.83 -0.6,3.67 -0.9,5.51 -0.3,1.84 -0.6,3.68 -0.9,5.51 -0.3,1.84 -0.6,3.68 -0.9,5.52 -0.3,1.84 -0.5,3.68 -0.8,5.52 -0.3,1.84 -0.6,3.68 -0.8,5.52 -0.3,1.84 -0.6,3.68 -0.8,5.53 -0.3,1.84 -0.6,3.68 -0.8,5.53 -0.3,1.84 -0.5,3.68 -0.8,5.53 -0.2,1.84 -0.5,3.69 -0.7,5.54 -0.2,1.84 -0.5,3.69 -0.7,5.53 -0.2,1.85 -0.5,3.7 -0.7,5.54 -0.2,1.85 -0.5,3.7 -0.7,5.55 -0.2,1.84 -0.4,3.69 -0.6,5.54 -0.3,1.85 -0.5,3.69 -0.7,5.55 -0.2,1.84 -0.4,3.7 -0.6,5.55 -0.2,1.85 -0.4,3.7 -0.6,5.55 -0.2,1.85 -0.4,3.7 -0.6,5.55 -0.1,1.85 -0.3,3.71 -0.5,5.56 -0.2,1.85 -0.4,3.7 -0.5,5.56 -0.2,1.85 -0.4,3.7 -0.5,5.55 -0.2,1.86 -0.4,3.71 -0.5,5.57 -0.2,1.85 -0.3,3.71 -0.5,5.56 -0.2,1.86 -0.3,3.71 -0.4,5.57 -0.2,1.86 -0.3,3.71 -0.5,5.57 -0.1,1.85 -0.2,3.71 -0.4,5.56 -0.1,1.86 -0.2,3.72 -0.4,5.57 -0.1,1.86 -0.2,3.72 -0.3,5.58 -0.1,1.86 -0.3,3.71 -0.4,5.57 -0.1,1.86 -0.2,3.72 -0.3,5.58 -0.1,1.86 -0.2,3.71 -0.3,5.57 -0.1,1.86 -0.2,3.72 -0.3,5.58 -0.1,1.85 -0.2,3.71 -0.2,5.57 -0.1,1.86 -0.2,3.72 -0.3,5.58 -0.1,1.86 -0.1,3.72 -0.2,5.58 -0.1,1.86 -0.1,3.72 -0.2,5.58 -0.1,1.86 -0.1,3.72 -0.2,5.58 0,1.86 -0.1,3.72 -0.1,5.58 -0.1,1.86 -0.1,3.72 -0.2,5.58 0,1.86 -0.1,3.72 -0.1,5.58 0,1.86 -0.1,3.73 -0.1,5.59 0,1.86 -0.1,3.72 -0.1,5.58 0,1.86 0,3.72 -0.1,5.58 0,1.87 0,3.73 0,5.59 0,1.86 0,3.72 0,5.58 0,0.32 0,0.64 0,0.96 0,1.87 0,3.73 0,5.59 0,1.86 0,3.72 0,5.59 0.1,1.85 0.1,3.71 0.1,5.58 0,1.86 0.1,3.72 0.1,5.58 0,1.86 0,3.72 0.1,5.59 0,1.85 0.1,3.71 0.1,5.58 0,1.86 0.1,3.72 0.1,5.58 0.1,1.86 0.1,3.72 0.2,5.58 0,1.86 0.1,3.72 0.2,5.58 0,1.86 0.1,3.72 0.2,5.58 0,1.86 0.1,3.72 0.2,5.58 0.1,1.86 0.1,3.71 0.2,5.57 0.1,1.87 0.2,3.73 0.3,5.59 0.1,1.86 0.2,3.71 0.3,5.57 0.1,1.86 0.2,3.72 0.3,5.58 0.1,1.85 0.2,3.71 0.3,5.57 0.1,1.86 0.2,3.72 0.3,5.57 0.1,1.86 0.3,3.72 0.4,5.57 0.1,1.86 0.2,3.72 0.4,5.57 0.1,1.86 0.2,3.72 0.4,5.57 0.1,1.86 0.2,3.72 0.4,5.57 0.1,1.86 0.3,3.72 0.4,5.57 0.2,1.86 0.3,3.71 0.5,5.56 0.2,1.86 0.3,3.71 0.5,5.56 0.2,1.86 0.3,3.71 0.5,5.57 0.2,1.85 0.3,3.71 0.5,5.56 0.2,1.85 0.4,3.7 0.6,5.55 0.1,1.85 0.3,3.7 0.5,5.55 0.2,1.85 0.4,3.71 0.6,5.55 0.2,1.86 0.4,3.71 0.6,5.56 0.2,1.85 0.4,3.7 0.7,5.55 0.2,1.85 0.4,3.69 0.6,5.55 0.2,1.84 0.5,3.69 0.7,5.53 0.2,1.85 0.4,3.7 0.7,5.55 0.2,1.84 0.4,3.69 0.7,5.53 0.2,1.85 0.5,3.69 0.7,5.54 0.3,1.84 0.5,3.69 0.8,5.53 0.2,1.84 0.5,3.69 0.7,5.53 0.3,1.84 0.6,3.69 0.8,5.53 0.3,1.84 0.6,3.68 0.8,5.52 0.3,1.84 0.6,3.68 0.9,5.52 0.3,1.84 0.5,3.68 0.8,5.52 0.3,1.84 0.6,3.68 0.9,5.52 0.3,1.83 0.6,3.67 0.9,5.5 0.3,1.84 0.6,3.67 0.9,5.51 0.3,1.83 0.7,3.67 1,5.51 0.3,1.83 0.6,3.66 0.9,5.5 0.3,1.83 0.7,3.66 1,5.49 0.3,1.83 0.7,3.67 1,5.49 0.3,1.84 0.7,3.66 1,5.49 0.4,1.83 0.7,3.66 1.1,5.49 0.3,1.83 0.7,3.66 1,5.48 0.4,1.83 0.7,3.65 1.1,5.48 0.4,1.83 0.7,3.65 1.1,5.47 0.4,1.83 0.7,3.65 1.1,5.48 0.4,1.82 0.8,3.64 1.2,5.46 0.3,1.82 0.7,3.64 1.1,5.46 0.4,1.82 0.8,3.64 1.2,5.46 0.4,1.82 0.8,3.64 1.2,5.45 0.4,1.82 0.8,3.64 1.2,5.45 0.4,1.81 0.9,3.63 1.3,5.44 0.4,1.81 0.8,3.62 1.2,5.44 0.5,1.81 0.9,3.63 1.3,5.43 0.4,1.82 0.9,3.63 1.3,5.43 0.5,1.81 0.9,3.62 1.3,5.43 0.5,1.81 0.9,3.61 1.4,5.42 0.4,1.8 0.9,3.61 1.3,5.41 0.5,1.81 1,3.61 1.4,5.41 0.5,1.8 1,3.61 1.4,5.4 0.5,1.8 1,3.61 1.5,5.41 0.4,1.79 0.9,3.59 1.4,5.39 0.5,1.79 1,3.59 1.5,5.38 0.5,1.8 0.9,3.59 1.4,5.39 0.5,1.79 1,3.58 1.6,5.38 0.5,1.79 1,3.58 1.5,5.37 0.5,1.79 1,3.57 1.5,5.36 0.5,1.79 1.1,3.58 1.6,5.36 0.5,1.79 1,3.57 1.6,5.36 0.5,1.78 1,3.56 1.6,5.35 0.5,1.78 1,3.56 1.6,5.34 0.5,1.78 1.1,3.55 1.6,5.33 0.6,1.78 1.1,3.56 1.7,5.33 0.6,1.78 1.1,3.55 1.7,5.32 0.5,1.78 1.1,3.55 1.7,5.32 0.5,1.77 1.1,3.55 1.7,5.32 0.6,1.77 1.2,3.53 1.7,5.3 0.6,1.77 1.2,3.53 1.8,5.3 0.6,1.76 1.2,3.53 1.8,5.29 0.6,1.76 1.2,3.52 1.8,5.28 0.6,1.76 1.2,3.52 1.8,5.28 0.6,1.76 1.2,3.52 1.8,5.27 0.7,1.76 1.3,3.52 1.9,5.27 0.6,1.75 1.2,3.51 1.9,5.26 0.6,1.75 1.2,3.5 1.9,5.24 0.6,1.75 1.2,3.5 1.9,5.25 0.6,1.75 1.3,3.49 1.9,5.24 0.7,1.74 1.3,3.49 2,5.23 0.6,1.74 1.3,3.48 2,5.22 0.6,1.74 1.3,3.48 2,5.22 0.6,1.73 1.3,3.47 2,5.2 0.6,1.73 1.3,3.47 2,5.2 0.7,1.73 1.4,3.46 2.1,5.19 0.6,1.73 1.3,3.46 2,5.19 0.7,1.72 1.4,3.45 2.1,5.17 0.7,1.73 1.4,3.45 2.1,5.17 0.7,1.72 1.4,3.44 2.2,5.16 0.7,1.72 1.4,3.44 2.1,5.16 0.7,1.71 1.4,3.43 2.2,5.14 0.7,1.71 1.4,3.43 2.2,5.14 0.7,1.71 1.4,3.42 2.2,5.12 0.7,1.71 1.4,3.42 2.2,5.13 0.7,1.7 1.5,3.41 2.2,5.11 0.8,1.7 1.5,3.4 2.3,5.1 0.8,1.7 1.5,3.4 2.3,5.1 0.7,1.69 1.5,3.39 2.3,5.09 0.7,1.69 1.5,3.38 2.3,5.07 0.8,1.7 1.5,3.39 2.3,5.08 0.8,1.68 1.6,3.37 2.4,5.05 0.8,1.69 1.6,3.37 2.4,5.05 0.8,1.69 1.6,3.37 2.4,5.05 0.8,1.68 1.6,3.35 2.4,5.03 0.8,1.68 1.6,3.35 2.4,5.03 0.8,1.67 1.6,3.34 2.5,5.01 0.8,1.67 1.6,3.34 2.4,5.01 0.8,1.67 1.7,3.34 2.5,5 0.8,1.66 1.7,3.33 2.5,4.99 0.9,1.66 1.7,3.32 2.5,4.97 0.9,1.66 1.7,3.32 2.6,4.97 0.8,1.66 1.7,3.32 2.5,4.97 0.9,1.65 1.8,3.3 2.6,4.95 0.9,1.65 1.8,3.3 2.6,4.94 0.9,1.65 1.8,3.29 2.6,4.93 0.9,1.64 1.8,3.28 2.7,4.92 0.9,1.64 1.7,3.28 2.6,4.91 0.9,1.64 1.8,3.27 2.7,4.91 0.9,1.63 1.8,3.26 2.7,4.89 0.9,1.63 1.8,3.25 2.7,4.88 0.9,1.63 1.8,3.25 2.7,4.87 0.7,1.26 1.4,2.52 2.1,3.78" /><path
         id="path704"
         style="fill:none;stroke:#e6e6e6;stroke-width:225;stroke-linecap:round;stroke-linejoin:round;stroke-miterlimit:4;stroke-dasharray:none;stroke-opacity:1"
         d="m 10894.2,5219.22 c -624.9,-197.84 -1049.61,-778.18 -1049.61,-1434.17 0,-398.94 158.31,-781.55 440.21,-1063.65 281.8,-282.09 664.1,-440.57 1062.7,-440.57 541.5,0 1041.2,291.54 1307.9,763.17 -0.6,-0.21 -1.3,-0.41 -1.9,-0.62 -1.8,-0.56 -3.6,-1.11 -5.3,-1.67 -1.8,-0.55 -3.6,-1.1 -5.4,-1.64 -1.7,-0.55 -3.5,-1.09 -5.3,-1.63 -1.8,-0.54 -3.6,-1.08 -5.3,-1.61 -1.8,-0.53 -3.6,-1.06 -5.4,-1.58 -1.8,-0.53 -3.6,-1.05 -5.4,-1.57 -1.7,-0.52 -3.5,-1.04 -5.3,-1.55 -1.8,-0.51 -3.6,-1.02 -5.4,-1.53 -1.8,-0.5 -3.6,-1.01 -5.3,-1.51 -1.8,-0.5 -3.6,-0.99 -5.4,-1.48 -1.8,-0.5 -3.6,-0.98 -5.4,-1.47 -1.8,-0.49 -3.6,-0.97 -5.4,-1.45 -1.8,-0.48 -3.6,-0.96 -5.4,-1.42 -1.8,-0.48 -3.6,-0.95 -5.4,-1.41 -1.8,-0.47 -3.6,-0.93 -5.4,-1.4 -1.8,-0.46 -3.6,-0.91 -5.4,-1.36 -1.8,-0.46 -3.6,-0.9 -5.4,-1.35 -1.8,-0.45 -3.6,-0.89 -5.4,-1.33 -1.8,-0.44 -3.6,-0.87 -5.5,-1.3 -1.8,-0.44 -3.6,-0.87 -5.4,-1.29 -1.8,-0.43 -3.6,-0.85 -5.4,-1.27 -1.8,-0.42 -3.6,-0.83 -5.5,-1.24 -1.8,-0.42 -3.6,-0.83 -5.4,-1.23 -1.8,-0.41 -3.6,-0.81 -5.4,-1.21 -1.9,-0.4 -3.7,-0.79 -5.5,-1.19 -1.8,-0.39 -3.6,-0.78 -5.5,-1.16 -1.8,-0.39 -3.6,-0.76 -5.4,-1.14 -1.8,-0.38 -3.7,-0.76 -5.5,-1.13 -1.8,-0.37 -3.6,-0.74 -5.4,-1.11 -1.9,-0.36 -3.7,-0.72 -5.5,-1.08 -1.8,-0.36 -3.7,-0.71 -5.5,-1.06 -1.8,-0.36 -3.6,-0.71 -5.5,-1.05 -1.8,-0.35 -3.6,-0.69 -5.5,-1.03 -1.8,-0.33 -3.6,-0.67 -5.4,-1 -1.9,-0.33 -3.7,-0.66 -5.5,-0.98 -1.9,-0.32 -3.7,-0.65 -5.5,-0.97 -1.9,-0.31 -3.7,-0.62 -5.5,-0.93 -1.9,-0.32 -3.7,-0.62 -5.5,-0.92 -1.9,-0.31 -3.7,-0.61 -5.5,-0.91 -1.9,-0.29 -3.7,-0.59 -5.5,-0.88 -1.9,-0.29 -3.7,-0.57 -5.6,-0.86 -1.8,-0.28 -3.6,-0.56 -5.5,-0.84 -1.8,-0.27 -3.7,-0.55 -5.5,-0.82 -1.8,-0.27 -3.7,-0.53 -5.5,-0.8 -1.9,-0.26 -3.7,-0.52 -5.5,-0.77 -1.9,-0.26 -3.7,-0.51 -5.6,-0.76 -1.8,-0.25 -3.7,-0.5 -5.5,-0.74 -1.8,-0.24 -3.7,-0.48 -5.5,-0.71 -1.9,-0.24 -3.7,-0.47 -5.6,-0.7 -1.8,-0.23 -3.7,-0.46 -5.5,-0.68 -1.8,-0.22 -3.7,-0.44 -5.5,-0.65 -1.9,-0.21 -3.7,-0.42 -5.6,-0.63 -1.8,-0.21 -3.7,-0.42 -5.5,-0.61 -1.9,-0.21 -3.7,-0.4 -5.6,-0.6 -1.8,-0.19 -3.7,-0.38 -5.5,-0.57 -1.9,-0.18 -3.7,-0.37 -5.6,-0.55 -1.8,-0.17 -3.7,-0.35 -5.5,-0.53 -1.9,-0.17 -3.7,-0.34 -5.6,-0.51 -1.8,-0.16 -3.7,-0.33 -5.5,-0.49 -1.9,-0.15 -3.7,-0.31 -5.6,-0.46 -1.9,-0.15 -3.7,-0.3 -5.6,-0.45 -1.8,-0.15 -3.7,-0.29 -5.5,-0.43 -1.9,-0.14 -3.7,-0.27 -5.6,-0.4 -1.8,-0.13 -3.7,-0.26 -5.6,-0.39 -1.8,-0.12 -3.7,-0.24 -5.5,-0.36 -1.9,-0.12 -3.7,-0.24 -5.6,-0.35 -1.8,-0.11 -3.7,-0.22 -5.6,-0.32 -1.8,-0.1 -3.7,-0.2 -5.5,-0.3 -1.9,-0.1 -3.7,-0.19 -5.6,-0.29 -1.9,-0.09 -3.7,-0.18 -5.6,-0.27 -1.8,-0.08 -3.7,-0.16 -5.6,-0.23 -1.8,-0.08 -3.7,-0.16 -5.5,-0.23 -1.9,-0.07 -3.7,-0.14 -5.6,-0.2 -1.9,-0.07 -3.7,-0.13 -5.6,-0.19 -1.8,-0.06 -3.7,-0.11 -5.6,-0.16 -1.8,-0.04 -3.7,-0.09 -5.5,-0.13 -1.9,-0.05 -3.7,-0.09 -5.6,-0.13 -1.9,-0.03 -3.7,-0.07 -5.6,-0.1 -1.8,-0.02 -3.7,-0.05 -5.6,-0.07 -1.8,-0.03 -3.7,-0.06 -5.5,-0.08 -1.9,-0.03 -3.8,-0.05 -5.6,-0.07 -1.9,-0.01 -3.7,-0.01 -5.6,0 -0.3,0 -0.6,0 -1,0 -1.8,-0.01 -3.7,-0.01 -5.5,0 -1.9,0.02 -3.8,0.04 -5.6,0.07 -1.9,0.02 -3.7,0.05 -5.6,0.08 -1.9,0.02 -3.7,0.05 -5.6,0.07 -1.8,0.03 -3.7,0.06 -5.6,0.09 -1.8,0.04 -3.7,0.08 -5.5,0.12 -1.9,0.04 -3.8,0.09 -5.6,0.13 -1.9,0.05 -3.7,0.1 -5.6,0.16 -1.8,0.05 -3.7,0.11 -5.6,0.18 -1.8,0.06 -3.7,0.13 -5.5,0.2 -1.9,0.07 -3.8,0.14 -5.6,0.22 -1.9,0.07 -3.7,0.15 -5.6,0.23 -1.8,0.08 -3.7,0.17 -5.6,0.26 -1.8,0.09 -3.7,0.19 -5.5,0.29 -1.9,0.1 -3.7,0.19 -5.6,0.3 -1.9,0.1 -3.7,0.21 -5.6,0.32 -1.8,0.11 -3.7,0.23 -5.5,0.35 -1.9,0.11 -3.8,0.23 -5.6,0.36 -1.9,0.12 -3.7,0.25 -5.6,0.39 -1.8,0.13 -3.7,0.26 -5.5,0.39 -1.9,0.14 -3.7,0.28 -5.6,0.42 -1.9,0.15 -3.7,0.3 -5.6,0.45 -1.8,0.16 -3.7,0.31 -5.5,0.47 -1.9,0.16 -3.7,0.32 -5.6,0.49 -1.8,0.16 -3.7,0.33 -5.5,0.5 -1.9,0.17 -3.7,0.34 -5.6,0.52 -1.8,0.18 -3.7,0.37 -5.5,0.55 -1.9,0.19 -3.7,0.38 -5.6,0.57 -1.8,0.2 -3.7,0.39 -5.5,0.59 -1.9,0.2 -3.7,0.41 -5.6,0.62 -1.8,0.2 -3.7,0.41 -5.5,0.62 -1.9,0.21 -3.7,0.43 -5.6,0.65 -1.8,0.22 -3.7,0.45 -5.5,0.67 -1.8,0.22 -3.7,0.46 -5.5,0.69 -1.9,0.23 -3.7,0.47 -5.6,0.71 -1.8,0.24 -3.7,0.49 -5.5,0.74 -1.8,0.25 -3.7,0.5 -5.5,0.75 -1.9,0.26 -3.7,0.51 -5.6,0.78 -1.8,0.26 -3.6,0.52 -5.5,0.79 -1.8,0.27 -3.7,0.55 -5.5,0.82 -1.8,0.28 -3.7,0.55 -5.5,0.84 -1.9,0.28 -3.7,0.56 -5.5,0.85 -1.9,0.29 -3.7,0.58 -5.5,0.88 -1.9,0.3 -3.7,0.59 -5.5,0.89 -1.9,0.31 -3.7,0.61 -5.5,0.93 -1.9,0.3 -3.7,0.62 -5.5,0.93 -1.9,0.32 -3.7,0.64 -5.5,0.96 -1.9,0.33 -3.7,0.65 -5.5,0.98 -1.9,0.33 -3.7,0.67 -5.5,1 -1.9,0.34 -3.7,0.68 -5.5,1.02 -1.8,0.34 -3.7,0.69 -5.5,1.04 -1.8,0.35 -3.6,0.71 -5.5,1.06 -1.8,0.36 -3.6,0.72 -5.4,1.08 -1.9,0.37 -3.7,0.73 -5.5,1.1 -1.8,0.37 -3.6,0.75 -5.5,1.12 -1.8,0.38 -3.6,0.76 -5.4,1.15 -1.9,0.38 -3.7,0.77 -5.5,1.16 -1.8,0.39 -3.6,0.79 -5.4,1.19 -1.9,0.39 -3.7,0.8 -5.5,1.2 -1.8,0.4 -3.6,0.81 -5.4,1.22 -1.8,0.41 -3.7,0.83 -5.5,1.25 -1.8,0.41 -3.6,0.83 -5.4,1.26 -1.8,0.42 -3.6,0.85 -5.4,1.28 -1.8,0.43 -3.6,0.87 -5.5,1.3 -1.8,0.44 -3.6,0.89 -5.4,1.33 -1.8,0.44 -3.6,0.89 -5.4,1.34 -1.8,0.45 -3.6,0.91 -5.4,1.37 -1.8,0.46 -3.6,0.92 -5.4,1.38 -1.8,0.47 -3.6,0.94 -5.4,1.41 -1.8,0.47 -3.6,0.94 -5.4,1.42 -1.8,0.48 -3.6,0.96 -5.4,1.45 -1.8,0.48 -3.6,0.97 -5.4,1.46 -1.8,0.49 -3.6,0.99 -5.4,1.49 -1.7,0.49 -3.5,1 -5.3,1.5 -1.8,0.5 -3.6,1.01 -5.4,1.52 -1.8,0.51 -3.6,1.03 -5.4,1.55 -1.7,0.52 -3.5,1.03 -5.3,1.56 -1.8,0.53 -3.6,1.06 -5.4,1.59 -1.7,0.53 -3.5,1.06 -5.3,1.6 -1.8,0.54 -3.6,1.08 -5.3,1.62 -1.8,0.55 -3.6,1.1 -5.4,1.65 -1.7,0.55 -3.5,1.1 -5.3,1.66 -1.8,0.56 -3.5,1.12 -5.3,1.69 -1.8,0.56 -3.6,1.13 -5.3,1.7 -1.8,0.57 -3.6,1.14 -5.3,1.72 -1.8,0.58 -3.6,1.16 -5.3,1.74 -1.8,0.59 -3.6,1.17 -5.3,1.77 -1.8,0.59 -3.6,1.18 -5.3,1.78 -1.8,0.6 -3.5,1.2 -5.3,1.8 -1.8,0.6 -3.5,1.21 -5.3,1.82 -1.7,0.61 -3.5,1.23 -5.2,1.84 -1.8,0.62 -3.5,1.24 -5.3,1.86 -1.7,0.63 -3.5,1.25 -5.2,1.88 -1.8,0.63 -3.5,1.26 -5.3,1.9 -1.7,0.64 -3.5,1.28 -5.2,1.92 -1.8,0.64 -3.5,1.29 -5.3,1.94 -1.7,0.65 -3.5,1.3 -5.2,1.95 -1.7,0.66 -3.5,1.32 -5.2,1.98 -1.7,0.67 -3.5,1.33 -5.2,2 -1.8,0.67 -3.5,1.34 -5.2,2.02 -1.8,0.67 -3.5,1.35 -5.2,2.03 -1.7,0.68 -3.5,1.37 -5.2,2.05 -1.7,0.69 -3.5,1.38 -5.2,2.07 -1.7,0.7 -3.4,1.4 -5.2,2.1 -1.7,0.7 -3.4,1.4 -5.1,2.11 -1.7,0.71 -3.5,1.42 -5.2,2.13 -1.7,0.72 -3.4,1.43 -5.1,2.15 -1.7,0.72 -3.5,1.44 -5.2,2.17 -1.7,0.73 -3.4,1.46 -5.1,2.19 -1.7,0.73 -3.4,1.47 -5.1,2.21 -1.7,0.73 -3.4,1.48 -5.1,2.22 -1.7,0.75 -3.4,1.49 -5.1,2.25 -1.7,0.75 -3.4,1.51 -5.1,2.26 -1.7,0.76 -3.4,1.52 -5.1,2.29 -1.7,0.76 -3.4,1.53 -5.1,2.3 -1.7,0.77 -3.4,1.55 -5.1,2.32 -1.7,0.78 -3.4,1.56 -5.1,2.34 -1.6,0.78 -3.3,1.57 -5,2.36 -1.7,0.79 -3.4,1.58 -5.1,2.38 -1.6,0.79 -3.3,1.59 -5,2.39 -1.7,0.81 -3.4,1.61 -5,2.42 -1.7,0.81 -3.4,1.62 -5.1,2.43 -1.6,0.82 -3.3,1.64 -5,2.46 -1.6,0.82 -3.3,1.64 -5,2.47 -1.6,0.82 -3.3,1.65 -5,2.48 -1.6,0.84 -3.3,1.68 -4.9,2.51 -1.7,0.84 -3.4,1.68 -5,2.53 -1.7,0.84 -3.3,1.69 -5,2.55 -1.6,0.85 -3.3,1.7 -4.9,2.56 -1.7,0.86 -3.3,1.72 -5,2.58 -1.6,0.86 -3.3,1.73 -4.9,2.6 -1.7,0.87 -3.3,1.74 -5,2.62 -1.6,0.87 -3.2,1.75 -4.9,2.64 -1.6,0.88 -3.2,1.77 -4.9,2.65 -1.6,0.89 -3.2,1.78 -4.9,2.68 -1.6,0.89 -3.2,1.79 -4.9,2.69 -1.6,0.89 -3.2,1.8 -4.8,2.71 -1.7,0.9 -3.3,1.81 -4.9,2.72 -1.6,0.92 -3.2,1.83 -4.9,2.75 -1.6,0.92 -3.2,1.84 -4.8,2.76 -1.6,0.93 -3.2,1.85 -4.9,2.79 -1.6,0.93 -3.2,1.86 -4.8,2.79 -1.6,0.94 -3.2,1.88 -4.8,2.82 -1.6,0.94 -3.2,1.89 -4.8,2.84 -1.6,0.95 -3.2,1.9 -4.8,2.85 -1.6,0.95 -3.2,1.91 -4.8,2.87 -1.6,0.96 -3.2,1.92 -4.8,2.89 -1.5,0.97 -3.1,1.94 -4.7,2.91 -1.6,0.97 -3.2,1.95 -4.8,2.92 -1.6,0.98 -3.1,1.96 -4.7,2.95 -1.6,0.98 -3.2,1.96 -4.7,2.95 -1.6,0.99 -3.2,1.99 -4.8,2.98 -1.5,1 -3.1,2 -4.7,3 -1.5,1 -3.1,2 -4.7,3.01 -1.5,1.01 -3.1,2.01 -4.7,3.02 -1.5,1.02 -3.1,2.03 -4.6,3.05 -1.6,1.02 -3.1,2.04 -4.7,3.06 -1.5,1.03 -3.1,2.06 -4.6,3.09 -1.6,1.03 -3.1,2.06 -4.7,3.1 -1.5,1.03 -3.1,2.07 -4.6,3.11 -1.6,1.04 -3.1,2.09 -4.6,3.14 -1.6,1.04 -3.1,2.1 -4.6,3.15 -1.6,1.05 -3.1,2.11 -4.6,3.16 -1.6,1.06 -3.1,2.12 -4.6,3.19 -1.5,1.06 -3.1,2.13 -4.6,3.2 -1.5,1.07 -3,2.15 -4.5,3.22 -1.6,1.07 -3.1,2.15 -4.6,3.23 -1.5,1.09 -3,2.17 -4.5,3.26 -1.5,1.08 -3,2.17 -4.6,3.26 -1.5,1.1 -3,2.19 -4.5,3.29 -1.5,1.1 -3,2.2 -4.5,3.3 -1.5,1.11 -3,2.21 -4.4,3.32 -1.5,1.11 -3,2.22 -4.5,3.34 -1.5,1.11 -3,2.23 -4.5,3.35 -1.5,1.12 -2.9,2.25 -4.4,3.37 -1.5,1.13 -3,2.26 -4.5,3.38 -1.4,1.14 -2.9,2.27 -4.4,3.41 -1.5,1.13 -2.9,2.27 -4.4,3.42 -1.5,1.14 -2.9,2.28 -4.4,3.43 -1.5,1.15 -2.9,2.3 -4.4,3.45 -1.4,1.15 -2.9,2.31 -4.4,3.47 -1.4,1.16 -2.9,2.32 -4.3,3.48 -1.5,1.17 -2.9,2.33 -4.4,3.51 -1.4,1.16 -2.9,2.33 -4.3,3.51 -1.4,1.18 -2.9,2.35 -4.3,3.53 -1.5,1.18 -2.9,2.37 -4.3,3.55 -1.5,1.19 -2.9,2.37 -4.3,3.56 -1.4,1.19 -2.9,2.38 -4.3,3.58 -1.4,1.19 -2.8,2.39 -4.3,3.6 -1.4,1.2 -2.8,2.4 -4.2,3.61 -1.4,1.2 -2.9,2.41 -4.3,3.63 -1.4,1.21 -2.8,2.42 -4.2,3.64 -1.4,1.21 -2.8,2.43 -4.2,3.66 -1.4,1.22 -2.8,2.45 -4.2,3.67 -1.4,1.23 -2.8,2.46 -4.2,3.69 -1.4,1.24 -2.8,2.47 -4.2,3.71 -1.4,1.23 -2.7,2.48 -4.1,3.72 -1.4,1.24 -2.8,2.49 -4.2,3.74 -1.4,1.24 -2.7,2.49 -4.1,3.75 -1.4,1.25 -2.8,2.51 -4.1,3.77 -1.4,1.25 -2.8,2.52 -4.1,3.78 -1.4,1.26 -2.8,2.53 -4.1,3.8 -1.4,1.26 -2.7,2.53 -4.1,3.81 -1.3,1.27 -2.7,2.55 -4.1,3.83 -1.3,1.27 -2.7,2.55 -4,3.84 -1.3,1.28 -2.7,2.57 -4,3.85 -1.4,1.3 -2.7,2.59 -4.1,3.88 -1.3,1.3 -2.6,2.59 -4,3.89 -1.3,1.3 -2.6,2.6 -3.9,3.9 -1.4,1.31 -2.7,2.61 -4,3.92 -1.3,1.31 -2.7,2.62 -4,3.93 -1.3,1.31 -2.6,2.63 -3.9,3.95 -1.3,1.32 -2.7,2.64 -4,3.96 -1.3,1.32 -2.6,2.65 -3.9,3.98 -1.3,1.33 -2.6,2.65 -3.9,3.99 -1.3,1.33 -2.6,2.66 -3.9,4 -1.3,1.34 -2.5,2.68 -3.8,4.02 -1.3,1.34 -2.6,2.69 -3.9,4.03 -1.3,1.35 -2.6,2.7 -3.8,4.05 -1.3,1.35 -2.6,2.71 -3.9,4.07 -1.2,1.35 -2.5,2.71 -3.8,4.07 -1.2,1.36 -2.5,2.73 -3.8,4.1 -1.2,1.36 -2.5,2.73 -3.8,4.1 -1.2,1.37 -2.5,2.74 -3.7,4.11 -1.3,1.38 -2.5,2.76 -3.8,4.14 -1.2,1.38 -2.5,2.76 -3.7,4.15 -1.3,1.38 -2.5,2.76 -3.7,4.16 -1.3,1.39 -2.5,2.78 -3.7,4.17 -1.3,1.39 -2.5,2.79 -3.7,4.19 -1.3,1.4 -2.5,2.8 -3.7,4.2 -1.2,1.4 -2.4,2.81 -3.7,4.22 -1.2,1.4 -2.4,2.81 -3.6,4.22 -1.2,1.42 -2.4,2.83 -3.6,4.25 -1.2,1.41 -2.4,2.83 -3.6,4.25 -1.2,1.42 -2.4,2.85 -3.6,4.27 -1.2,1.43 -2.4,2.85 -3.6,4.28 -1.2,1.43 -2.4,2.87 -3.6,4.3 -1.2,1.43 -2.3,2.87 -3.5,4.31 -1.2,1.44 -2.4,2.88 -3.6,4.32 -1.1,1.45 -2.3,2.89 -3.5,4.34 -1.1,1.45 -2.3,2.89 -3.5,4.34 -1.1,1.46 -2.3,2.91 -3.5,4.37 -1.1,1.45 -2.3,2.91 -3.4,4.37 -1.2,1.46 -2.3,2.92 -3.5,4.39 -1.1,1.46 -2.3,2.93 -3.4,4.4 -1.2,1.47 -2.3,2.94 -3.4,4.41 -1.2,1.48 -2.3,2.95 -3.4,4.43 -1.2,1.47 -2.3,2.95 -3.4,4.43 -1.1,1.48 -2.3,2.97 -3.4,4.45 -1.1,1.49 -2.2,2.98 -3.3,4.47 -1.2,1.49 -2.3,2.98 -3.4,4.47 -1.1,1.5 -2.2,3 -3.3,4.49 -1.1,1.5 -2.2,3 -3.3,4.5 -1.1,1.5 -2.2,3.01 -3.3,4.51 -1.1,1.51 -2.2,3.02 -3.2,4.52 -1.1,1.52 -2.2,3.03 -3.3,4.55 -1.1,1.51 -2.2,3.02 -3.2,4.54 -1.1,1.52 -2.2,3.04 -3.3,4.56 -1,1.53 -2.1,3.05 -3.2,4.58 -1,1.52 -2.1,3.05 -3.1,4.58 -1.1,1.53 -2.2,3.06 -3.2,4.6 -1.1,1.53 -2.1,3.07 -3.2,4.61 -1,1.53 -2.1,3.07 -3.1,4.61 -1,1.55 -2.1,3.09 -3.1,4.64 -1,1.54 -2.1,3.09 -3.1,4.64 -1,1.55 -2.1,3.1 -3.1,4.65 -1,1.55 -2,3.11 -3.1,4.67 -1,1.56 -2,3.11 -3,4.68 -1,1.56 -2,3.12 -3,4.68 -1,1.57 -2,3.14 -3,4.7 -1,1.57 -2,3.14 -3,4.71 -1,1.58 -2,3.15 -3,4.73 -1,1.57 -2,3.15 -3,4.73 -1,1.58 -1.9,3.16 -2.9,4.74 -1,1.59 -2,3.17 -2.9,4.76 -1,1.59 -2,3.17 -3,4.76 -0.9,1.59 -1.9,3.18 -2.8,4.78 -1,1.59 -2,3.19 -2.9,4.79 -1,1.59 -1.9,3.19 -2.9,4.8 -0.9,1.6 -1.9,3.2 -2.8,4.8 -0.9,1.61 -1.9,3.21 -2.8,4.82 -1,1.61 -1.9,3.22 -2.8,4.83 -1,1.61 -1.9,3.23 -2.8,4.84 -0.9,1.61 -1.8,3.23 -2.8,4.85 -0.9,1.62 -1.8,3.24 -2.7,4.86 -0.9,1.62 -1.8,3.25 -2.7,4.87 -1,1.63 -1.9,3.25 -2.8,4.88 -0.9,1.63 -1.8,3.26 -2.6,4.89 -0.9,1.63 -1.8,3.27 -2.7,4.9 -0.9,1.64 -1.8,3.27 -2.7,4.91 -0.9,1.64 -1.7,3.28 -2.6,4.92 -0.9,1.64 -1.8,3.29 -2.6,4.93 -0.9,1.65 -1.8,3.29 -2.6,4.94 -0.9,1.65 -1.8,3.3 -2.6,4.95 -0.9,1.65 -1.7,3.3 -2.6,4.95 -0.8,1.66 -1.7,3.32 -2.5,4.98 -0.9,1.65 -1.7,3.31 -2.6,4.97 -0.8,1.67 -1.6,3.33 -2.5,4.99 -0.8,1.67 -1.6,3.33 -2.5,5 -0.8,1.67 -1.6,3.33 -2.4,5 -0.8,1.67 -1.7,3.35 -2.5,5.02 -0.8,1.67 -1.6,3.35 -2.4,5.02 -0.8,1.68 -1.6,3.36 -2.4,5.04 -0.8,1.68 -1.6,3.35 -2.4,5.04 -0.8,1.68 -1.6,3.36 -2.4,5.04 -0.8,1.69 -1.6,3.38 -2.4,5.07 -0.8,1.68 -1.5,3.37 -2.3,5.06 -0.8,1.69 -1.6,3.38 -2.3,5.08 -0.8,1.69 -1.6,3.39 -2.3,5.09 -0.8,1.69 -1.6,3.39 -2.3,5.09 -0.8,1.7 -1.5,3.4 -2.3,5.1 -0.7,1.7 -1.5,3.41 -2.2,5.11 -0.8,1.71 -1.5,3.41 -2.3,5.13 -0.7,1.7 -1.4,3.41 -2.2,5.12 -0.7,1.71 -1.4,3.42 -2.2,5.13 -0.7,1.72 -1.4,3.43 -2.1,5.15 -0.7,1.72 -1.5,3.44 -2.2,5.15 -0.7,1.72 -1.4,3.44 -2.1,5.16 -0.7,1.72 -1.4,3.44 -2.1,5.16 -0.7,1.73 -1.4,3.45 -2.1,5.18 -0.7,1.73 -1.4,3.46 -2.1,5.19 -0.7,1.72 -1.4,3.45 -2.1,5.18 -0.6,1.74 -1.3,3.47 -2,5.2 -0.7,1.73 -1.3,3.47 -2,5.21 -0.7,1.74 -1.3,3.47 -2,5.21 -0.7,1.74 -1.3,3.48 -2,5.22 -0.6,1.74 -1.3,3.49 -1.9,5.23 -0.7,1.75 -1.3,3.49 -2,5.24 -0.6,1.74 -1.3,3.49 -1.9,5.24 -0.6,1.75 -1.3,3.5 -1.9,5.25 -0.6,1.75 -1.3,3.5 -1.9,5.26 -0.6,1.75 -1.2,3.5 -1.8,5.26 -0.7,1.75 -1.3,3.51 -1.9,5.27 -0.6,1.76 -1.2,3.52 -1.8,5.28 -0.6,1.76 -1.2,3.52 -1.8,5.28 -0.6,1.77 -1.2,3.53 -1.8,5.29 -0.6,1.76 -1.2,3.53 -1.8,5.3 -0.6,1.76 -1.1,3.53 -1.7,5.3 -0.6,1.77 -1.2,3.54 -1.7,5.31 -0.6,1.77 -1.2,3.55 -1.7,5.32 -0.6,1.77 -1.2,3.55 -1.7,5.32 -0.6,1.78 -1.1,3.55 -1.7,5.33 -0.5,1.77 -1.1,3.55 -1.6,5.33 -0.6,1.78 -1.1,3.56 -1.7,5.34 -0.5,1.78 -1,3.57 -1.6,5.35 -0.5,1.78 -1,3.57 -1.6,5.35 -0.5,1.79 -1,3.58 -1.5,5.37 -0.5,1.78 -1.1,3.57 -1.6,5.36 -0.5,1.79 -1,3.58 -1.5,5.37 -0.5,1.79 -1,3.58 -1.5,5.38 -0.5,1.79 -1,3.58 -1.5,5.38 -0.5,1.79 -1,3.59 -1.5,5.38 -0.4,1.8 -0.9,3.6 -1.4,5.4 -0.5,1.8 -1,3.6 -1.4,5.4 -0.5,1.8 -1,3.6 -1.4,5.4 -0.5,1.8 -1,3.6 -1.4,5.41 -0.5,1.8 -0.9,3.61 -1.4,5.41 -0.4,1.8 -0.9,3.61 -1.3,5.41 -0.5,1.81 -0.9,3.62 -1.4,5.43 -0.4,1.81 -0.8,3.62 -1.3,5.43 -0.4,1.81 -0.8,3.62 -1.2,5.43 -0.5,1.82 -0.9,3.63 -1.3,5.44 -0.4,1.82 -0.9,3.63 -1.3,5.45 -0.4,1.81 -0.8,3.63 -1.2,5.44 -0.4,1.81 -0.8,3.63 -1.2,5.45 -0.4,1.82 -0.8,3.64 -1.2,5.46 -0.4,1.82 -0.8,3.64 -1.1,5.46 -0.4,1.82 -0.8,3.64 -1.2,5.46 -0.4,1.83 -0.7,3.65 -1.1,5.47 -0.4,1.83 -0.8,3.65 -1.1,5.47 -0.4,1.83 -0.7,3.66 -1.1,5.48 -0.4,1.83 -0.7,3.65 -1.1,5.48 -0.3,1.83 -0.7,3.66 -1,5.49 -0.4,1.83 -0.7,3.66 -1,5.49 -0.4,1.83 -0.7,3.66 -1,5.49 -0.4,1.83 -0.7,3.66 -1,5.5 -0.3,1.83 -0.7,3.66 -1,5.5 -0.3,1.83 -0.6,3.66 -0.9,5.5 -0.3,1.84 -0.6,3.67 -0.9,5.51 -0.3,1.83 -0.6,3.67 -0.9,5.51 -0.3,1.84 -0.6,3.68 -0.9,5.51 -0.3,1.84 -0.6,3.68 -0.9,5.52 -0.3,1.84 -0.5,3.68 -0.8,5.52 -0.3,1.84 -0.6,3.68 -0.8,5.52 -0.3,1.84 -0.6,3.68 -0.8,5.53 -0.3,1.84 -0.6,3.68 -0.8,5.53 -0.3,1.84 -0.5,3.68 -0.8,5.53 -0.2,1.84 -0.5,3.69 -0.7,5.54 -0.2,1.84 -0.5,3.69 -0.7,5.53 -0.2,1.85 -0.5,3.7 -0.7,5.54 -0.2,1.85 -0.5,3.7 -0.7,5.55 -0.2,1.84 -0.4,3.69 -0.6,5.54 -0.3,1.85 -0.5,3.69 -0.7,5.55 -0.2,1.84 -0.4,3.7 -0.6,5.55 -0.2,1.85 -0.4,3.7 -0.6,5.55 -0.2,1.85 -0.4,3.7 -0.6,5.55 -0.1,1.85 -0.3,3.71 -0.5,5.56 -0.2,1.85 -0.4,3.7 -0.5,5.56 -0.2,1.85 -0.4,3.7 -0.5,5.55 -0.2,1.86 -0.4,3.71 -0.5,5.57 -0.2,1.85 -0.3,3.71 -0.5,5.56 -0.2,1.86 -0.3,3.71 -0.4,5.57 -0.2,1.86 -0.3,3.71 -0.5,5.57 -0.1,1.85 -0.2,3.71 -0.4,5.56 -0.1,1.86 -0.2,3.72 -0.4,5.57 -0.1,1.86 -0.2,3.72 -0.3,5.58 -0.1,1.86 -0.3,3.71 -0.4,5.57 -0.1,1.86 -0.2,3.72 -0.3,5.58 -0.1,1.86 -0.2,3.71 -0.3,5.57 -0.1,1.86 -0.2,3.72 -0.3,5.58 -0.1,1.85 -0.2,3.71 -0.2,5.57 -0.1,1.86 -0.2,3.72 -0.3,5.58 -0.1,1.86 -0.1,3.72 -0.2,5.58 -0.1,1.86 -0.1,3.72 -0.2,5.58 -0.1,1.86 -0.1,3.72 -0.2,5.58 0,1.86 -0.1,3.72 -0.1,5.58 -0.1,1.86 -0.1,3.72 -0.2,5.58 0,1.86 -0.1,3.72 -0.1,5.58 0,1.86 -0.1,3.73 -0.1,5.59 0,1.86 -0.1,3.72 -0.1,5.58 0,1.86 0,3.72 -0.1,5.58 0,1.87 0,3.73 0,5.59 0,1.86 0,3.72 0,5.58 0,0.32 0,0.64 0,0.96 0,1.87 0,3.73 0,5.59 0,1.86 0,3.72 0,5.59 0.1,1.85 0.1,3.71 0.1,5.58 0,1.86 0.1,3.72 0.1,5.58 0,1.86 0,3.72 0.1,5.59 0,1.85 0.1,3.71 0.1,5.58 0,1.86 0.1,3.72 0.1,5.58 0.1,1.86 0.1,3.72 0.2,5.58 0,1.86 0.1,3.72 0.2,5.58 0,1.86 0.1,3.72 0.2,5.58 0,1.86 0.1,3.72 0.2,5.58 0.1,1.86 0.1,3.71 0.2,5.57 0.1,1.87 0.2,3.73 0.3,5.59 0.1,1.86 0.2,3.71 0.3,5.57 0.1,1.86 0.2,3.72 0.3,5.58 0.1,1.85 0.2,3.71 0.3,5.57 0.1,1.86 0.2,3.72 0.3,5.57 0.1,1.86 0.3,3.72 0.4,5.57 0.1,1.86 0.2,3.72 0.4,5.57 0.1,1.86 0.2,3.72 0.4,5.57 0.1,1.86 0.2,3.72 0.4,5.57 0.1,1.86 0.3,3.72 0.4,5.57 0.2,1.86 0.3,3.71 0.5,5.56 0.2,1.86 0.3,3.71 0.5,5.56 0.2,1.86 0.3,3.71 0.5,5.57 0.2,1.85 0.3,3.71 0.5,5.56 0.2,1.85 0.4,3.7 0.6,5.55 0.1,1.85 0.3,3.7 0.5,5.55 0.2,1.85 0.4,3.71 0.6,5.55 0.2,1.86 0.4,3.71 0.6,5.56 0.2,1.85 0.4,3.7 0.7,5.55 0.2,1.85 0.4,3.69 0.6,5.55 0.2,1.84 0.5,3.69 0.7,5.53 0.2,1.85 0.4,3.7 0.7,5.55 0.2,1.84 0.4,3.69 0.7,5.53 0.2,1.85 0.5,3.69 0.7,5.54 0.3,1.84 0.5,3.69 0.8,5.53 0.2,1.84 0.5,3.69 0.7,5.53 0.3,1.84 0.6,3.69 0.8,5.53 0.3,1.84 0.6,3.68 0.8,5.52 0.3,1.84 0.6,3.68 0.9,5.52 0.3,1.84 0.5,3.68 0.8,5.52 0.3,1.84 0.6,3.68 0.9,5.52 0.3,1.83 0.6,3.67 0.9,5.5 0.3,1.84 0.6,3.67 0.9,5.51 0.3,1.83 0.7,3.67 1,5.51 0.3,1.83 0.6,3.66 0.9,5.5 0.3,1.83 0.7,3.66 1,5.49 0.3,1.83 0.7,3.67 1,5.49 0.3,1.84 0.7,3.66 1,5.49 0.4,1.83 0.7,3.66 1.1,5.49 0.3,1.83 0.7,3.66 1,5.48 0.4,1.83 0.7,3.65 1.1,5.48 0.4,1.83 0.7,3.65 1.1,5.47 0.4,1.83 0.7,3.65 1.1,5.48 0.4,1.82 0.8,3.64 1.2,5.46 0.3,1.82 0.7,3.64 1.1,5.46 0.4,1.82 0.8,3.64 1.2,5.46 0.4,1.82 0.8,3.64 1.2,5.45 0.4,1.82 0.8,3.64 1.2,5.45 0.4,1.81 0.9,3.63 1.3,5.44 0.4,1.81 0.8,3.62 1.2,5.44 0.5,1.81 0.9,3.63 1.3,5.43 0.4,1.82 0.9,3.63 1.3,5.43 0.5,1.81 0.9,3.62 1.3,5.43 0.5,1.81 0.9,3.61 1.4,5.42 0.4,1.8 0.9,3.61 1.3,5.41 0.5,1.81 1,3.61 1.4,5.41 0.5,1.8 1,3.61 1.4,5.4 0.5,1.8 1,3.61 1.5,5.41 0.4,1.79 0.9,3.59 1.4,5.39 0.5,1.79 1,3.59 1.5,5.38 0.5,1.8 0.9,3.59 1.4,5.39 0.5,1.79 1,3.58 1.6,5.38 0.5,1.79 1,3.58 1.5,5.37 0.5,1.79 1,3.57 1.5,5.36 0.5,1.79 1.1,3.58 1.6,5.36 0.5,1.79 1,3.57 1.6,5.36 0.5,1.78 1,3.56 1.6,5.35 0.5,1.78 1,3.56 1.6,5.34 0.5,1.78 1.1,3.55 1.6,5.33 0.6,1.78 1.1,3.56 1.7,5.33 0.6,1.78 1.1,3.55 1.7,5.32 0.5,1.78 1.1,3.55 1.7,5.32 0.5,1.77 1.1,3.55 1.7,5.32 0.6,1.77 1.2,3.53 1.7,5.3 0.6,1.77 1.2,3.53 1.8,5.3 0.6,1.76 1.2,3.53 1.8,5.29 0.6,1.76 1.2,3.52 1.8,5.28 0.6,1.76 1.2,3.52 1.8,5.28 0.6,1.76 1.2,3.52 1.8,5.27 0.7,1.76 1.3,3.52 1.9,5.27 0.6,1.75 1.2,3.51 1.9,5.26 0.6,1.75 1.2,3.5 1.9,5.24 0.6,1.75 1.2,3.5 1.9,5.25 0.6,1.75 1.3,3.49 1.9,5.24 0.7,1.74 1.3,3.49 2,5.23 0.6,1.74 1.3,3.48 2,5.22 0.6,1.74 1.3,3.48 2,5.22 0.6,1.73 1.3,3.47 2,5.2 0.6,1.73 1.3,3.47 2,5.2 0.7,1.73 1.4,3.46 2.1,5.19 0.6,1.73 1.3,3.46 2,5.19 0.7,1.72 1.4,3.45 2.1,5.17 0.7,1.73 1.4,3.45 2.1,5.17 0.7,1.72 1.4,3.44 2.2,5.16 0.7,1.72 1.4,3.44 2.1,5.16 0.7,1.71 1.4,3.43 2.2,5.14 0.7,1.71 1.4,3.43 2.2,5.14 0.7,1.71 1.4,3.42 2.2,5.12 0.7,1.71 1.4,3.42 2.2,5.13 0.7,1.7 1.5,3.41 2.2,5.11 0.8,1.7 1.5,3.4 2.3,5.1 0.8,1.7 1.5,3.4 2.3,5.1 0.7,1.69 1.5,3.39 2.3,5.09 0.7,1.69 1.5,3.38 2.3,5.07 0.8,1.7 1.5,3.39 2.3,5.08 0.8,1.68 1.6,3.37 2.4,5.05 0.8,1.69 1.6,3.37 2.4,5.05 0.8,1.69 1.6,3.37 2.4,5.05 0.8,1.68 1.6,3.35 2.4,5.03 0.8,1.68 1.6,3.35 2.4,5.03 0.8,1.67 1.6,3.34 2.5,5.01 0.8,1.67 1.6,3.34 2.4,5.01 0.8,1.67 1.7,3.34 2.5,5 0.8,1.66 1.7,3.33 2.5,4.99 0.9,1.66 1.7,3.32 2.5,4.97 0.9,1.66 1.7,3.32 2.6,4.97 0.8,1.66 1.7,3.32 2.5,4.97 0.9,1.65 1.8,3.3 2.6,4.95 0.9,1.65 1.8,3.3 2.6,4.94 0.9,1.65 1.8,3.29 2.6,4.93 0.9,1.64 1.8,3.28 2.7,4.92 0.9,1.64 1.7,3.28 2.6,4.91 0.9,1.64 1.8,3.27 2.7,4.91 0.9,1.63 1.8,3.26 2.7,4.89 0.9,1.63 1.8,3.25 2.7,4.88 0.9,1.63 1.8,3.25 2.7,4.87 0.7,1.26 1.4,2.52 2.1,3.78 z" /><g
         transform="scale(1.25392)"
         id="g706"><path
           id="path708"
           style="fill:#ff5555;fill-opacity:1;fill-rule:nonzero;stroke:none"
           d="m 14953.2,4463.72 c -42.9,0 -77.6,-34.74 -77.6,-77.59 v -80.5 c -209.8,-12.11 -413.9,-73.13 -595.8,-178.2 -416.7,-240.55 -673.4,-685.08 -673.5,-1166.18 0.2,70.64 85.8,135.88 224.5,171.2 138.9,35.35 310,35.35 449,0 138.9,-35.36 224.4,-100.7 224.4,-171.42 0,70.72 85.6,136.06 224.5,171.42 45.5,11.57 95.2,19.53 146.9,23.53 V 1931.8 c 0,-92.7 -49.3,-178.06 -129.6,-224.41 -80.3,-46.35 -178.8,-46.35 -259.1,0 -80.3,46.35 -129.6,131.71 -129.6,224.41 0,20.58 -8.1,40.31 -22.7,54.86 -14.5,14.55 -34.3,22.73 -54.8,22.73 -20.6,0 -40.4,-8.18 -54.9,-22.73 -14.6,-14.55 -22.7,-34.28 -22.7,-54.86 0,-147.89 79,-284.85 207.1,-358.8 128.1,-73.94 286.2,-73.94 414.3,0 125.1,72.22 202.9,204.62 206.5,348.52 0.4,3.41 0.7,6.84 0.7,10.28 v 1224.18 c 51.7,-4 101.4,-11.96 146.8,-23.53 138.9,-35.36 224.5,-100.7 224.5,-171.42 0,70.72 85.6,136.06 224.5,171.42 138.9,35.35 310,35.35 448.9,0 138.9,-35.36 224.5,-100.7 224.5,-171.42 0,481.18 -256.7,925.81 -673.4,1166.4 -182,105.07 -386,166.09 -595.8,178.2 v 80.5 c 0,20.58 -8.2,40.32 -22.8,54.86 -14.5,14.56 -34.3,22.73 -54.8,22.73" /></g><g
         transform="scale(1.69144)"
         id="g710"><path
           id="path712"
           style="fill:none;stroke:#e6e6e6;stroke-width:133.022995;stroke-linecap:round;stroke-linejoin:round;stroke-miterlimit:4;stroke-dasharray:none;stroke-opacity:1"
           d="m 15063.6,2473.67 -312.7,-180.58 m 312.7,180.58 v 361.16 m 3.6,-888.85 v -361.16 m 0,361.16 -312.7,180.58 m 771.5,-441.29 312.8,-180.58 m -312.8,180.58 -312.7,-180.58 m 767.9,447.56 312.8,180.57 m -312.8,-180.57 v -361.16 m -3.6,888.85 v 361.15 m 0,-361.15 312.8,-180.58 m -771.6,441.29 -312.8,180.58 m 312.8,-180.58 312.8,180.58 m 468.4,-1145.47 -782.2,443.5 1.5,-884.78 1.2,884.93 -781.9,-443.65 783.4,441.43 -783.4,441.13 782.2,-443.49 -1.5,884.77 -1.2,-884.92 781.9,443.64 -783.4,-441.42 z" /></g></g></g></svg>